<?xml version="1.0" encoding="utf-8"?>
<!-- Generator: Adobe Illustrator 16.0.0, SVG Export Plug-In . SVG Version: 6.00 Build 0)  -->
<!DOCTYPE svg PUBLIC "-//W3C//DTD SVG 1.1//EN" "http://www.w3.org/Graphics/SVG/1.1/DTD/svg11.dtd">
<svg version="1.1" id="Layer_1" xmlns="http://www.w3.org/2000/svg" xmlns:xlink="http://www.w3.org/1999/xlink" x="0px" y="0px"
	 width="155.751px" height="107.562px" viewBox="0 0 155.751 107.562" enable-background="new 0 0 155.751 107.562"
	 xml:space="preserve">
<g>
	<path fill="#FFFFFF" d="M53.501,54.907c-0.18-3.384-0.396-7.451-0.36-10.475h-0.108c-0.828,2.843-1.836,5.867-3.06,9.215
		l-4.283,11.77h-2.376l-3.923-11.554c-1.152-3.42-2.124-6.552-2.808-9.431h-0.072c-0.072,3.023-0.252,7.091-0.468,10.727
		l-0.648,10.402h-2.987L34.1,41.3h3.996l4.14,11.734c1.008,2.988,1.836,5.652,2.448,8.171h0.108
		c0.612-2.447,1.476-5.111,2.556-8.171L51.666,41.3h3.996l1.512,24.261h-3.06L53.501,54.907z"/>
	<path fill="#FFFFFF" d="M65.851,43.244c0.036,1.08-0.756,1.944-2.016,1.944c-1.116,0-1.908-0.864-1.908-1.944
		c0-1.115,0.828-1.979,1.979-1.979C65.095,41.264,65.851,42.128,65.851,43.244z M62.323,65.562V48.139h3.168v17.422H62.323z"/>
	<path fill="#FFFFFF" d="M70.747,52.855c0-1.8-0.036-3.276-0.144-4.716h2.808l0.18,2.88h0.072c0.864-1.656,2.879-3.275,5.759-3.275
		c2.412,0,6.156,1.439,6.156,7.416v10.402H82.41V55.519c0-2.808-1.044-5.148-4.032-5.148c-2.088,0-3.708,1.477-4.248,3.24
		c-0.144,0.396-0.216,0.936-0.216,1.476v10.475h-3.168V52.855z"/>
	<path fill="#FFFFFF" d="M90.726,40.004h3.168v10.87h0.072c0.504-0.899,1.296-1.691,2.268-2.231c0.936-0.54,2.052-0.899,3.24-0.899
		c2.34,0,6.083,1.439,6.083,7.451v10.367h-3.168V55.554c0-2.807-1.044-5.183-4.031-5.183c-2.052,0-3.671,1.44-4.247,3.168
		c-0.181,0.432-0.217,0.899-0.217,1.512v10.511h-3.168V40.004z"/>
	<path fill="#FFFFFF" d="M120.353,65.562l-0.252-2.195h-0.107c-0.973,1.367-2.844,2.59-5.328,2.59c-3.527,0-5.327-2.482-5.327-5.002
		c0-4.213,3.743-6.516,10.475-6.48v-0.359c0-1.44-0.396-4.032-3.96-4.032c-1.619,0-3.311,0.504-4.535,1.296l-0.72-2.087
		c1.44-0.937,3.528-1.548,5.724-1.548c5.327,0,6.623,3.635,6.623,7.127v6.515c0,1.512,0.072,2.988,0.288,4.176H120.353z
		 M119.885,56.671c-3.456-0.072-7.38,0.539-7.38,3.922c0,2.053,1.369,3.025,2.988,3.025c2.268,0,3.707-1.441,4.211-2.916
		c0.108-0.324,0.181-0.684,0.181-1.008V56.671z"/>
	<path fill="#FFFFFF" d="M22.292,95.321c0.936,0.611,2.592,1.26,4.175,1.26c2.304,0,3.384-1.152,3.384-2.592
		c0-1.512-0.9-2.34-3.24-3.203c-3.131-1.115-4.607-2.844-4.607-4.932c0-2.807,2.268-5.111,6.011-5.111
		c1.764,0,3.312,0.504,4.284,1.08l-0.792,2.303c-0.684-0.432-1.944-1.008-3.563-1.008c-1.872,0-2.916,1.08-2.916,2.377
		c0,1.439,1.044,2.088,3.312,2.951c3.023,1.152,4.571,2.664,4.571,5.256c0,3.059-2.376,5.219-6.515,5.219
		c-1.908,0-3.672-0.469-4.896-1.188L22.292,95.321z"/>
	<path fill="#FFFFFF" d="M52.746,89.706c0,6.443-4.463,9.25-8.675,9.25c-4.715,0-8.351-3.455-8.351-8.963
		c0-5.83,3.816-9.25,8.639-9.25C49.362,80.743,52.746,84.378,52.746,89.706z M38.923,89.886c0,3.816,2.196,6.695,5.292,6.695
		c3.023,0,5.292-2.844,5.292-6.768c0-2.951-1.476-6.695-5.22-6.695C40.543,83.118,38.923,86.575,38.923,89.886z"/>
	<path fill="#FFFFFF" d="M56.743,73.005h3.168v25.557h-3.168V73.005z"/>
	<path fill="#FFFFFF" d="M79.818,93.81c0,1.801,0.035,3.383,0.143,4.752h-2.807l-0.18-2.844h-0.072
		c-0.828,1.404-2.664,3.238-5.759,3.238c-2.735,0-6.011-1.512-6.011-7.631V81.14h3.168v9.646c0,3.311,1.008,5.543,3.887,5.543
		c2.124,0,3.6-1.477,4.176-2.879c0.18-0.469,0.288-1.045,0.288-1.621V81.14h3.168V93.81z"/>
	<path fill="#FFFFFF" d="M97.529,97.913c-0.756,0.396-2.411,0.973-4.57,1.008l-0.9,1.439c1.296,0.252,2.52,1.152,2.52,2.629
		c0,2.158-1.8,2.986-3.744,2.986c-0.827,0-1.835-0.215-2.52-0.611l0.541-1.619c0.539,0.322,1.26,0.467,1.979,0.467
		c0.828,0,1.549-0.252,1.549-1.115c-0.036-0.973-1.116-1.332-2.809-1.512l1.513-2.771c-4.428-0.541-7.271-3.961-7.271-8.783
		c0-5.363,3.672-9.252,9.358-9.252c1.873,0,3.528,0.469,4.393,0.9l-0.721,2.447c-0.756-0.432-1.943-0.826-3.672-0.826
		c-3.995,0-6.154,2.951-6.154,6.586c0,4.031,2.592,6.516,6.047,6.516c1.8,0,3.023-0.469,3.888-0.863L97.529,97.913z"/>
	<path fill="#FFFFFF" d="M110.814,98.562l-0.252-2.195h-0.108c-0.972,1.367-2.844,2.59-5.327,2.59c-3.527,0-5.328-2.482-5.328-5.002
		c0-4.213,3.744-6.516,10.475-6.48v-0.359c0-1.439-0.396-4.031-3.959-4.031c-1.619,0-3.312,0.504-4.535,1.295l-0.721-2.086
		c1.44-0.938,3.528-1.549,5.725-1.549c5.326,0,6.623,3.635,6.623,7.127v6.516c0,1.512,0.071,2.988,0.287,4.176H110.814z
		 M102.679,78.151c-0.072-2.34,0.899-3.744,2.447-3.744c0.791,0,1.404,0.324,2.231,0.793c0.576,0.324,1.08,0.611,1.512,0.611
		c0.576,0,0.899-0.324,1.008-1.547h1.655c0.072,2.412-0.756,3.635-2.447,3.635c-0.756,0-1.439-0.324-2.195-0.719
		c-0.721-0.434-1.116-0.648-1.548-0.648c-0.576,0-0.864,0.611-0.937,1.619H102.679z M110.345,89.671
		c-3.455-0.072-7.379,0.539-7.379,3.922c0,2.053,1.368,3.025,2.988,3.025c2.268,0,3.707-1.441,4.211-2.916
		c0.107-0.324,0.18-0.684,0.18-1.008V89.671z"/>
	<path fill="#FFFFFF" d="M134.285,89.706c0,6.443-4.463,9.25-8.675,9.25c-4.716,0-8.351-3.455-8.351-8.963
		c0-5.83,3.815-9.25,8.639-9.25C130.902,80.743,134.285,84.378,134.285,89.706z M120.462,89.886c0,3.816,2.195,6.695,5.291,6.695
		c3.023,0,5.292-2.844,5.292-6.768c0-2.951-1.476-6.695-5.22-6.695C122.083,83.118,120.462,86.575,120.462,89.886z"/>
</g>
<g>
	<g>
		<g>
			<path fill="#FFFFFF" d="M77.876,32.002c-8.823,0-16.001-7.178-16.001-16.002c0-8.822,7.178-16,16.001-16s15.999,7.178,15.999,16
				C93.875,24.824,86.7,32.002,77.876,32.002L77.876,32.002z M77.876,3.201c-7.058,0-12.8,5.742-12.8,12.799
				c0,7.059,5.742,12.801,12.8,12.801s12.8-5.742,12.8-12.801C90.676,8.943,84.934,3.201,77.876,3.201L77.876,3.201z"/>
		</g>
	</g>
	<g>
		<g>
			<path fill="#FFFFFF" d="M77.876,24.801c-0.884,0-1.601-0.717-1.601-1.6v-14.4c0-0.883,0.717-1.6,1.601-1.6s1.601,0.717,1.601,1.6
				v14.4C79.477,24.084,78.76,24.801,77.876,24.801L77.876,24.801z"/>
		</g>
	</g>
	<g>
		<g>
			<path fill="#FFFFFF" d="M85.077,17.602h-14.4c-0.884,0-1.6-0.717-1.6-1.602c0-0.883,0.716-1.6,1.6-1.6h14.4
				c0.883,0,1.6,0.717,1.6,1.6C86.676,16.885,85.959,17.602,85.077,17.602L85.077,17.602z"/>
		</g>
	</g>
</g>
</svg>
