<?xml version="1.0" standalone="no"?>
<!DOCTYPE svg PUBLIC "-//W3C//DTD SVG 1.1//EN" "http://www.w3.org/Graphics/SVG/1.1/DTD/svg11.dtd" >
<svg xmlns="http://www.w3.org/2000/svg">
<metadata></metadata>
<defs>
<font id="the_serif_bold-regular" horiz-adv-x="1132" >
<font-face units-per-em="2048" ascent="1536" descent="-512" />
<missing-glyph horiz-adv-x="446" />
<glyph horiz-adv-x="0" />
<glyph unicode="&#xd;" horiz-adv-x="446" />
<glyph unicode=" "  horiz-adv-x="446" />
<glyph unicode="&#x09;" horiz-adv-x="446" />
<glyph unicode="&#xa0;" horiz-adv-x="446" />
<glyph unicode="!" horiz-adv-x="622" d="M150 133q0 -66 46 -111t113 -45q68 0 114 45.5t46 110.5q0 66 -46 111t-114 45t-113.5 -45t-45.5 -111zM158 1466l43 -1081h225l39 1081h-307z" />
<glyph unicode="&#x22;" horiz-adv-x="829" d="M90 1534l33 -520h196l33 520h-262zM477 1534l33 -520h195l34 520h-262z" />
<glyph unicode="#" horiz-adv-x="1421" d="M55 360h269l-39 -360h225l39 360h250l-37 -360h227l37 360h281v193h-260l32 305h287v193h-266l33 331h-228l-33 -331h-251l34 331h-225l-35 -331h-280v-193h260l-33 -305h-287v-193zM569 553l33 305h250l-33 -305h-250z" />
<glyph unicode="$" horiz-adv-x="1026" d="M96 905q0 -106 41 -172.5t103.5 -108.5t135.5 -69t135 -52.5t103 -59t41 -91.5q0 -82 -64.5 -117.5t-162.5 -35.5q-43 0 -90 10q-6 63 -19 135h-178v-334q66 -16 127.5 -23t130.5 -10v-235h187v250q80 18 143.5 54t108.5 87t69.5 113.5t24.5 132.5q0 104 -42 170.5 t-105.5 111t-136.5 72t-136 54t-105 59.5t-42 86q0 55 49 96t161 41q20 0 42 -2t40 -6q2 -31 6.5 -64.5t14.5 -70.5h174v325q-115 25 -242 31v193h-186v-207q-72 -14 -132.5 -47t-103.5 -80t-67.5 -107.5t-24.5 -128.5z" />
<glyph unicode="%" horiz-adv-x="1677" d="M74 1063q0 -172 90 -257t237 -85q70 0 134.5 24.5t113.5 72.5t78 117t29 155q0 90 -25.5 153.5t-71 104.5t-106.5 59t-131 18q-68 0 -131.5 -24.5t-111.5 -70.5t-76.5 -113.5t-28.5 -153.5zM233 82l189 -135l993 1353l-188 136zM295 1073q0 82 35 127t86 45q59 0 90 -37 t31 -133q0 -86 -36 -130t-89 -44q-57 0 -87 39t-30 133zM899 299q0 -172 90 -257t238 -85q70 0 133 24.5t112.5 72.5t78 117t28.5 155q0 90 -25.5 153.5t-70.5 104.5t-106.5 59.5t-131.5 18.5q-68 0 -130 -25t-110.5 -71t-77 -113.5t-28.5 -153.5zM1120 309q0 82 35 127 t86 45q59 0 89 -37t30 -133q0 -86 -35 -130t-88 -44q-57 0 -87 39t-30 133z" />
<glyph unicode="&#x26;" horiz-adv-x="1689" d="M96 383q0 -82 28 -155.5t85 -130t144 -89.5t208 -33q164 0 298 49.5t231 127.5q53 -41 101 -79t99 -73h326v168q-35 8 -70 13t-69 9q-47 35 -96.5 72t-102.5 80q63 86 105 188.5t59 219.5q37 4 75.5 9t73.5 13v170h-528v-170q27 -6 56.5 -10t60.5 -8q-8 -80 -34 -147.5 t-61 -117.5q-98 78 -198.5 168.5t-173.5 163.5q125 98 183 191.5t58 201.5q0 135 -93 219.5t-271 84.5q-98 0 -175 -28t-128 -74t-78 -108.5t-27 -129.5q0 -45 9.5 -85t30 -82t54 -89.5t84.5 -104.5q-117 -90 -190.5 -194.5t-73.5 -239.5zM369 416q0 70 37.5 128t107.5 115 q35 -37 80 -82t95 -92t103.5 -94t106.5 -90q-55 -41 -128 -71.5t-165 -30.5q-55 0 -99 18.5t-75 48t-47 68.5t-16 82zM440 1190q0 59 36 94t93 35q66 0 96.5 -36t30.5 -87q0 -66 -36.5 -119t-100.5 -106q-66 76 -92.5 126t-26.5 93z" />
<glyph unicode="'" horiz-adv-x="442" d="M90 1534l33 -520h196l33 520h-262z" />
<glyph unicode="(" horiz-adv-x="649" d="M106 584q0 -248 62.5 -492t214.5 -487h252q-270 440 -270 989q0 268 67.5 514t196.5 461h-244q-147 -242 -213 -493t-66 -492z" />
<glyph unicode=")" horiz-adv-x="649" d="M23 -395h247q152 244 215.5 489.5t63.5 493.5q0 242 -64.5 490.5t-210.5 490.5h-249q129 -215 197.5 -464t68.5 -517q0 -545 -268 -983z" />
<glyph unicode="*" horiz-adv-x="786" d="M63 1087l91 -159l176 139l-33 -221h186l-32 221l174 -139l92 162l-207 81l207 82l-92 160l-174 -139l32 221h-186l33 -221l-174 139l-93 -162l207 -82z" />
<glyph unicode="+" horiz-adv-x="1159" d="M49 418h406v-418h247v418h408v219h-408v416h-247v-416h-406v-219z" />
<glyph unicode="," horiz-adv-x="528" d="M55 -258l109 -96q143 125 203.5 243.5t60.5 210.5t-47 148.5t-119 56.5q-53 0 -90 -25.5t-53.5 -64.5t-12 -82t32.5 -78q49 -57 36 -128.5t-120 -184.5z" />
<glyph unicode="-" horiz-adv-x="684" d="M90 416h504v209h-504v-209z" />
<glyph unicode="." horiz-adv-x="528" d="M96 143q0 -70 49.5 -119t118.5 -49q70 0 118 49.5t48 118.5q0 70 -48 119t-118 49t-119 -49t-49 -119z" />
<glyph unicode="/" horiz-adv-x="870" d="M49 0h258l527 1382h-256z" />
<glyph unicode="0" horiz-adv-x="1245" d="M86 514q0 -147 41 -248.5t110.5 -166t164 -93.5t200.5 -29q113 0 214.5 38t178 111t121.5 176.5t45 234.5q0 102 -27.5 199.5t-89 172t-162 119.5t-245.5 45q-109 0 -209 -38t-176 -110.5t-121 -176t-45 -234.5zM346 530q0 76 22.5 135.5t60.5 101.5t89 63.5t109 21.5 q137 0 204.5 -90.5t67.5 -231.5q0 -78 -22.5 -138t-60.5 -102t-89 -64.5t-106 -22.5q-72 0 -123.5 24.5t-85 68.5t-50 103.5t-16.5 130.5z" />
<glyph unicode="1" horiz-adv-x="772" d="M31 934l41 -209l209 88v-620q-59 -4 -113.5 -10.5t-101.5 -16.5v-166h655v166q-41 10 -86 16t-86 11v860h-203z" />
<glyph unicode="2" horiz-adv-x="985" d="M82 0h815v231q-135 0 -250 -1t-198 -7l2 2l149 119q123 98 190.5 192.5t67.5 208.5q0 147 -105.5 236.5t-306.5 89.5q-98 0 -185 -17.5t-159 -45.5v-312h166q6 35 11.5 73t9.5 71q25 10 55.5 15t61.5 5q82 0 122.5 -41t40.5 -110q0 -35 -15 -69t-48 -73t-85 -85 t-126 -103l-213 -166v-213z" />
<glyph unicode="3" horiz-adv-x="944" d="M72 -362q45 -10 101 -16.5t103 -6.5q135 0 243 35t182.5 96t114.5 146t40 186q0 117 -67.5 204t-196.5 115v2q106 43 170.5 129t64.5 197q0 74 -24.5 136.5t-74.5 108.5t-128.5 71.5t-187.5 25.5q-96 0 -169 -15.5t-145 -43.5v-314h166q6 39 11.5 75t7.5 69q55 16 104 16 q82 0 125 -44t43 -122q0 -113 -102.5 -177.5t-311.5 -61.5v-207q98 10 177 6t136.5 -26.5t88 -63.5t30.5 -105q0 -106 -77.5 -160.5t-208.5 -54.5q-111 0 -193 29z" />
<glyph unicode="4" horiz-adv-x="1140" d="M27 213l43 -213h555v-190q-47 -4 -92.5 -10.5t-86.5 -16.5v-158h603v158q-35 10 -78 16t-88 11v190h217v236h-217v821h-330zM279 231l350 574h2v-569h-70h-98q-51 0 -101.5 -1.5t-82.5 -3.5z" />
<glyph unicode="5" horiz-adv-x="950" d="M90 -375q76 -12 164 -12q133 0 245.5 38t193.5 104.5t127 158.5t46 203q0 92 -32.5 166.5t-95 129t-153.5 84t-206 29.5v273l444 -2v256h-692v-746q29 2 59.5 4t61.5 2q166 0 251 -63.5t85 -167.5q0 -100 -79 -169t-243 -69q-86 0 -151 17z" />
<glyph unicode="6" horiz-adv-x="1189" d="M106 561q0 -285 129.5 -434.5t352.5 -149.5q117 0 213 37t165.5 102.5t107.5 156.5t38 200q0 201 -113.5 319.5t-314.5 118.5q-98 0 -176 -32.5t-123 -90.5l-2 3q4 20 8 35.5t8 29.5q43 166 153 261t290 95q33 0 67.5 -3t67.5 -7v232q-25 2 -59.5 3t-57.5 1 q-170 0 -309 -58.5t-237.5 -170t-153 -274.5t-54.5 -374zM399 463q0 43 14.5 83t42 71.5t69.5 50t98 18.5q100 0 157.5 -62.5t57.5 -179.5q0 -104 -58.5 -173.5t-165.5 -69.5q-55 0 -95 20.5t-66.5 56t-40 84t-13.5 101.5z" />
<glyph unicode="7" horiz-adv-x="950" d="M45 653h205q10 45 15 86t9 82h66h111q59 0 107 1t56 1q-117 -274 -214 -578t-169 -620h293q70 338 168 644t209 562v222h-856v-400z" />
<glyph unicode="8" horiz-adv-x="1140" d="M90 346q0 -82 31 -149.5t89 -116.5t143 -76t194 -27q102 0 193 27t160 78t109 127t40 174q0 70 -22.5 125t-59.5 100t-85 81t-98 65q119 78 179.5 159.5t60.5 192.5q0 78 -30.5 141.5t-89 108.5t-140.5 69.5t-186 24.5q-102 0 -189.5 -27.5t-150 -79t-97.5 -122 t-35 -158.5q0 -115 61.5 -199t170.5 -147l2 -2q-43 -29 -87 -64t-81 -80t-59.5 -100t-22.5 -125zM365 375q0 72 52 129t130 104h2q100 -51 161.5 -106t61.5 -137q0 -78 -57.5 -123t-145.5 -45q-94 0 -149 49t-55 129zM381 1075q0 70 48 116t138 46q92 0 139.5 -46.5 t47.5 -109.5q0 -66 -43 -116t-131 -109l-2 2q-92 51 -144.5 100.5t-52.5 116.5z" />
<glyph unicode="9" horiz-adv-x="1189" d="M78 565q0 -98 28.5 -178t83 -136t132 -88t174.5 -32q96 0 169.5 34t118.5 87l2 -2q-4 -16 -9 -40t-9 -40q-45 -166 -153.5 -247t-290.5 -81q-33 0 -74 6.5t-72 16.5v-240q35 -6 72 -9t63 -3q190 0 336 59.5t242 171t145 270t49 357.5q0 156 -36.5 268.5t-102 186 t-157 108.5t-199.5 35q-115 0 -209 -38t-161.5 -105.5t-104.5 -159.5t-37 -201zM352 604q0 102 59.5 171t159.5 69q109 0 163 -72.5t54 -183.5q0 -92 -58 -159t-163 -67q-106 0 -160.5 62.5t-54.5 179.5z" />
<glyph unicode=":" horiz-adv-x="563" d="M115 143q0 -70 49 -119t117 -49q70 0 119 49.5t49 118.5q0 70 -49 119t-119 49q-68 0 -117 -49t-49 -119zM115 723q0 -70 49 -119t117 -49q70 0 119 49t49 119t-49 119t-119 49q-68 0 -117 -49t-49 -119z" />
<glyph unicode=";" horiz-adv-x="563" d="M76 -258l106 -96q143 125 203.5 243.5t62 211t-46.5 148.5t-120 56q-53 0 -90 -25.5t-53.5 -64.5t-11.5 -82t34 -78q47 -57 33.5 -128.5t-117.5 -184.5zM115 723q0 -70 49 -119t117 -49q70 0 119 49t49 119t-49.5 119t-118.5 49q-68 0 -117 -49t-49 -119z" />
<glyph unicode="&#x3c;" horiz-adv-x="1032" d="M94 514l654 -604l170 178l-488 428l488 434l-173 172z" />
<glyph unicode="=" horiz-adv-x="1169" d="M129 217h911v211h-911v-211zM129 608h911v211h-911v-211z" />
<glyph unicode="&#x3e;" horiz-adv-x="1032" d="M115 82l172 -172l651 608l-653 604l-170 -178l487 -428z" />
<glyph unicode="?" horiz-adv-x="882" d="M111 1241q180 -8 285.5 -65.5t105.5 -149.5q0 -49 -30 -88t-72 -78t-86 -82t-74.5 -98t-36.5 -127t28 -168h254q-27 82 -14.5 140.5t46.5 104.5t80 87t88 88t71.5 106.5t29.5 141.5q0 80 -38.5 153.5t-118.5 132t-201 95t-285 43.5zM205 133q0 -66 46 -111t114 -45 t113.5 45t45.5 111t-46 111t-113 45q-68 0 -114 -45t-46 -111z" />
<glyph unicode="@" horiz-adv-x="1660" d="M98 616q0 -147 45 -267t134.5 -206t220.5 -133t301 -47q41 0 89 3t95 10.5t90 17.5t76 22v193q-78 -29 -159 -41t-161 -12q-129 0 -224 34.5t-157.5 97t-93 151.5t-30.5 200q0 129 44 235.5t119.5 183.5t178 119t219.5 42q121 0 206 -34t139 -89.5t78.5 -128t24.5 -152.5 q0 -162 -50 -228.5t-136 -66.5q-55 0 -73.5 37t-2.5 135l62 340q-43 14 -103.5 24.5t-124.5 10.5q-109 0 -190.5 -37t-135 -101.5t-80 -150.5t-26.5 -184q0 -129 49 -191.5t142 -62.5q90 0 156.5 52t99.5 118h6q-4 -72 42 -121t148 -49q96 0 177 29.5t139.5 91t90 152.5 t31.5 214q0 121 -44 227.5t-128 185.5t-206.5 125t-278.5 46q-166 0 -311.5 -58.5t-254 -163t-171 -250.5t-62.5 -323zM666 631q0 43 11 93t34.5 91t57.5 68.5t79 27.5q41 0 78 -10l-15 -72q-29 -152 -81 -231.5t-109 -79.5q-55 0 -55 113z" />
<glyph unicode="A" horiz-adv-x="1427" d="M16 0h521v166q-33 6 -72 12t-74 10l58 164h503l60 -164q-35 -4 -74 -10t-72 -12v-166h545v166q-25 8 -53.5 13t-54.5 7l-431 1196h-325l-422 -1196q-27 -2 -55.5 -7t-53.5 -13v-166zM514 559l119 330q23 59 38 117.5t27 111.5h2q12 -59 27.5 -111.5t36.5 -107.5l123 -340 h-373z" />
<glyph unicode="B" horiz-adv-x="1267" d="M47 0h178q131 0 235.5 -2t168.5 -2q156 0 262 39t170.5 100.5t93.5 138t29 152.5q0 51 -15.5 101.5t-46 92.5t-77 72.5t-107.5 42.5v4q98 39 158.5 122t60.5 188q0 166 -119.5 254t-347.5 88q-63 0 -128.5 -1t-128 -3.5t-118 -3.5t-96.5 -1h-172v-165q41 -8 86 -14.5 t92 -10.5v-1002q-47 -4 -92 -10t-86 -14v-166zM492 221v387q23 2 61 2h55q131 0 211 -44t80 -146q0 -94 -65.5 -150.5t-198.5 -56.5q-47 0 -84 2t-59 6zM492 811v360q35 2 73.5 3.5t81.5 1.5q127 0 177 -46t50 -124q0 -92 -68.5 -144.5t-207.5 -52.5h-57q-27 0 -49 2z" />
<glyph unicode="C" horiz-adv-x="1193" d="M78 647q0 -156 41 -279.5t123 -209.5t206.5 -132t290.5 -46q98 0 190.5 15t178.5 44l-16 246q-66 -27 -142 -42.5t-151 -15.5q-117 0 -198 32t-131 91.5t-73.5 145.5t-23.5 196q0 104 23.5 189.5t68.5 145.5t112.5 93t153.5 33q35 0 69 -4t70 -12q4 -41 10.5 -84 t16.5 -90h201v397q-78 18 -159 27.5t-159 9.5q-176 0 -308 -54.5t-220 -152.5t-131 -236.5t-43 -306.5z" />
<glyph unicode="D" horiz-adv-x="1447" d="M47 0h178q25 0 68 -1t95 -3t110.5 -3t111.5 -1q168 0 308.5 46t241 137t155.5 226.5t55 313.5q0 182 -49 310t-139 210t-220.5 119t-289.5 37q-129 0 -250 -4.5t-203 -4.5h-172v-165q41 -8 86 -14.5t92 -10.5v-1002q-47 -4 -92 -10t-86 -14v-166zM492 229v932 q33 4 73.5 5t87.5 1q119 0 201 -31.5t133 -93t74.5 -149.5t23.5 -199q0 -123 -33.5 -213t-93 -148.5t-142.5 -86t-181 -27.5q-39 0 -77 3t-66 7z" />
<glyph unicode="E" horiz-adv-x="1099" d="M47 0h946v362h-198q-8 -41 -13.5 -76.5t-9.5 -70.5h-280v399h223q4 -29 9 -57.5t15 -54.5h170v416h-170q-14 -49 -24 -113h-223v369h278q4 -29 9 -65t12 -75h198v348h-942v-165q41 -8 86 -14.5t92 -10.5v-1002q-47 -4 -92 -10t-86 -14v-166z" />
<glyph unicode="F" horiz-adv-x="1050" d="M47 0h623v166q-41 8 -86 14t-92 10v396h231q4 -31 9 -58.5t13 -54.5h170v428h-170q-16 -57 -22 -113h-231v381h276q4 -37 9 -71.5t11 -69.5h199v354h-940v-165q41 -8 86 -14.5t92 -10.5v-1002q-47 -4 -92 -10t-86 -14v-166z" />
<glyph unicode="G" horiz-adv-x="1404" d="M74 659q0 -158 47 -283.5t136 -213.5t218 -135t293 -47q127 0 250 22.5t227 63.5v469q29 4 57.5 9t57.5 11v170h-557v-166q39 -10 84 -16t92 -11v-288q-80 -25 -176 -25q-211 0 -326 122t-115 343q0 117 35 207t96.5 151.5t146.5 93t185 31.5q41 0 85 -5t85 -15 q4 -41 9.5 -81t15.5 -85h205v371q-96 25 -191.5 38t-193.5 13q-176 0 -318.5 -54.5t-242 -152.5t-152.5 -234.5t-53 -302.5z" />
<glyph unicode="H" horiz-adv-x="1568" d="M47 0h594v168q-35 10 -74 14t-75 8v410h585v-410q-37 -4 -75.5 -8t-73.5 -14v-168h594v166q-41 8 -86 14t-93 10v1002q47 4 92.5 10t86.5 15v165h-594v-168q35 -10 73.5 -14t75.5 -8v-363h-585v363q37 4 75.5 8t73.5 14v168h-594v-165q41 -8 86 -14.5t92 -10.5v-1002 q-47 -4 -92 -10t-86 -14v-166z" />
<glyph unicode="I" horiz-adv-x="714" d="M47 0h623v166q-41 8 -86 14t-92 10v1002q47 4 92 10t86 15v165h-623v-165q41 -8 86 -14.5t92 -10.5v-1002q-47 -4 -92 -10t-86 -14v-166z" />
<glyph unicode="J" horiz-adv-x="737" d="M18 -2q35 -6 75 -11t95 -5q106 0 178 31.5t116 86t62.5 128t18.5 159.5v805q35 4 66.5 9t62.5 13v168h-573v-165q41 -8 86 -14.5t92 -10.5v-795q0 -113 -40 -151.5t-112 -38.5q-39 0 -70.5 5t-56.5 15v-229z" />
<glyph unicode="K" horiz-adv-x="1425" d="M47 0h580v168q-33 10 -68 14t-67 8v492l413 -496q-23 -4 -49.5 -8t-52.5 -10v-168h583v168q-31 6 -65.5 11t-63.5 9l-466 531l438 475q29 4 62.5 9t64.5 11v168h-561v-168q23 -6 52.5 -11t53.5 -7l-409 -465v461q33 4 67.5 8t67.5 14v168h-580v-165q41 -8 86 -14.5 t92 -10.5v-1002q-47 -4 -92 -10t-86 -14v-166z" />
<glyph unicode="L" horiz-adv-x="1003" d="M47 0h930v389h-197q-8 -47 -14 -90t-10 -80h-264v973q47 4 92 10t86 15v165h-623v-165q41 -8 86 -14.5t92 -10.5v-1002q-47 -4 -92 -10t-86 -14v-166z" />
<glyph unicode="M" horiz-adv-x="1918" d="M31 0h518v166q-31 6 -70 12t-73 10l67 508q10 72 20.5 147t16.5 152h4q14 -88 37.5 -178t52.5 -176l209 -641h266l221 694q27 82 43.5 156t32.5 145h4q4 -53 14.5 -123.5t26.5 -164.5l80 -519q-35 -4 -73.5 -10t-69.5 -12v-166h532v168q-23 6 -51.5 11t-54.5 7l-168 1006 q47 4 92 10t86 15v165h-520l-238 -714q-25 -78 -42 -142.5t-33 -144.5h-5q-27 145 -75 291l-232 710h-524v-165q41 -8 86 -14.5t92 -10.5l-166 -1006q-27 -2 -55.5 -7t-50.5 -11v-168z" />
<glyph unicode="N" horiz-adv-x="1558" d="M47 0h584v168q-35 10 -74 15t-74 10q0 229 -1 438t-11 366q29 -68 64.5 -142.5t82.5 -152.5l422 -702h342v1190q35 4 67.5 10t61.5 14v168h-526v-168q63 -18 139 -24q0 -229 1 -435t14 -362q-39 78 -73 146.5t-81 144.5l-416 698h-522v-165q41 -8 86 -14.5t92 -10.5v-999 q-47 -4 -92 -11.5t-86 -15.5v-166z" />
<glyph unicode="O" horiz-adv-x="1439" d="M68 674q0 -160 38.5 -289t116.5 -220t197 -139.5t276 -48.5q141 0 264 50.5t214.5 145.5t144.5 230.5t53 307.5q0 178 -46 308t-130 216t-199.5 128t-253.5 42q-139 0 -262 -50t-215 -144.5t-145 -229.5t-53 -307zM352 702q0 117 31 204t81 144.5t116.5 86t138.5 28.5 q180 0 274 -122t94 -353q0 -125 -32.5 -214t-86 -146.5t-120 -84t-133.5 -26.5q-92 0 -161 35t-114 97.5t-66.5 151.5t-21.5 199z" />
<glyph unicode="P" horiz-adv-x="1153" d="M47 0h623v166q-41 8 -86 14t-92 10v297q25 -4 47 -4h41q125 0 225 37t171 101.5t107.5 153t36.5 188.5q0 205 -134 316.5t-390 111.5q-53 0 -111.5 -1t-112 -3.5t-97.5 -3.5t-68 -1h-160v-165q41 -8 86 -14.5t92 -10.5v-1002q-47 -4 -92 -10t-86 -14v-166zM492 711v460 q23 2 45 3h47q137 0 198.5 -62t61.5 -166q0 -113 -76 -176t-199 -65q-39 0 -77 6z" />
<glyph unicode="Q" horiz-adv-x="1439" d="M68 674q0 -160 38.5 -289t116.5 -220t197 -139.5t276 -48.5q141 0 264 50.5t214.5 145.5t144.5 230.5t53 307.5q0 178 -46 308t-130 216t-199.5 128t-253.5 42q-139 0 -262 -50t-215 -144.5t-145 -229.5t-53 -307zM352 702q0 117 31 204t81 144.5t116.5 86t138.5 28.5 q180 0 274 -122t94 -353q0 -125 -32.5 -214t-86 -146.5t-120 -84t-133.5 -26.5q-92 0 -161 35t-114 97.5t-66.5 151.5t-21.5 199zM618 -127v-235q57 7 108 7q53 0 98 -7q89 -15 178.5 -34.5t191.5 -31.5q33 -3 72 -3q76 0 170 15v234q-77 -11 -142 -11q-43 0 -80 5 q-94 12 -181 31.5t-183 32.5q-43 6 -94 6q-63 0 -138 -9z" />
<glyph unicode="R" horiz-adv-x="1255" d="M47 0h569v168q-31 10 -63.5 14t-60.5 8v381h36l338 -571h351v170q-74 12 -136 23l-213 333q-16 25 -33.5 50.5t-35.5 50.5q147 31 236 130t89 244q0 106 -35.5 180t-101 120.5t-158 68t-206.5 21.5q-63 0 -129 -1t-123.5 -3.5t-100.5 -3.5t-63 -1h-160v-165 q41 -8 86 -14.5t92 -10.5v-1002q-47 -4 -92 -10t-86 -14v-166zM492 768v399q20 4 46.5 5.5t55.5 1.5q250 0 250 -199q0 -98 -67.5 -154.5t-190.5 -56.5q-31 0 -55.5 1t-38.5 3z" />
<glyph unicode="S" horiz-adv-x="1036" d="M80 989q0 -115 44 -185.5t110.5 -115.5t144.5 -71.5t144.5 -55.5t110.5 -66.5t44 -103.5q0 -96 -69.5 -139t-178.5 -43q-49 0 -96 10q-4 35 -9.5 76t-13.5 86h-202v-369q145 -35 315 -35q125 0 224.5 34t169 94.5t107.5 142.5t38 180q0 109 -44.5 177.5t-112 113.5 t-144 73.5t-144 57.5t-112 66.5t-44.5 99.5q0 74 56.5 121t173.5 47q18 0 38.5 -2t33.5 -4q6 -74 22 -158h203v354q-72 16 -142.5 23.5t-148.5 7.5q-123 0 -219 -31t-162.5 -85t-101.5 -131t-35 -169z" />
<glyph unicode="T" horiz-adv-x="1202" d="M35 993h196q8 47 14.5 89t10.5 81h211v-973q-47 -4 -92 -10t-86 -14v-166h622v166q-41 8 -86 14t-92 10v973h213q4 -39 10.5 -81t14.5 -89h196v389h-1132v-389z" />
<glyph unicode="U" horiz-adv-x="1456" d="M47 1214q63 -16 129 -22v-713q0 -98 22.5 -189t82 -161t163 -111t267.5 -41q279 0 425 134.5t146 418.5v662q64 6 127 22v168h-537v-168q35 -10 73 -14t75 -8v-672q0 -176 -69.5 -248.5t-223.5 -72.5q-86 0 -141.5 21.5t-87 61.5t-44 94t-12.5 120v696q35 4 74 8t74 14 v168h-543v-168z" />
<glyph unicode="V" horiz-adv-x="1386" d="M16 1214q23 -6 51.5 -11t55.5 -7l414 -1196h309l418 1196q27 2 55.5 7t50.5 11v168h-522v-165q33 -6 70.5 -12.5t72.5 -10.5l-207 -604q-31 -86 -49 -150.5t-35 -136.5h-2q-18 76 -39.5 143.5t-42.5 126.5l-204 621q35 4 73.5 10t73.5 13v165h-543v-168z" />
<glyph unicode="W" horiz-adv-x="1996" d="M16 1214q23 -6 52.5 -11t56.5 -7l301 -1196h309l203 768q16 70 28.5 138.5t20.5 140.5h2q10 -74 22.5 -147t30.5 -138l203 -762h326l301 1196q27 2 55 7t53 11v168h-516v-165q35 -6 72 -12.5t74 -10.5l-142 -584q-16 -61 -27 -126.5t-24 -137.5h-2q-10 72 -23.5 142.5 t-29.5 125.5l-215 768h-283l-211 -772q-16 -66 -29.5 -134t-23.5 -138h-2q-10 72 -21.5 142.5t-27.5 137.5l-143 576q35 4 73.5 10t73.5 13v165h-537v-168z" />
<glyph unicode="X" horiz-adv-x="1441" d="M20 0h551v168q-29 6 -58.5 11t-53.5 7l239 342l236 -342q-27 -2 -55.5 -7t-55.5 -11v-168h598v168q-29 6 -62.5 11t-62.5 7l-401 521l375 487q29 4 63.5 9t65.5 11v168h-547v-168q29 -6 57.5 -11t57.5 -7l-228 -317l-219 317q29 2 58.5 7t58.5 11v168h-596v-168 q31 -6 64.5 -11t62.5 -7l379 -494l-397 -516q-29 -2 -64 -7t-66 -11v-168z" />
<glyph unicode="Y" horiz-adv-x="1251" d="M16 1214q23 -6 53.5 -11t53.5 -7l366 -725v-281q-47 -4 -92 -10t-86 -14v-166h623v166q-41 8 -86 14t-92 10v281l372 725q27 2 55.5 7t53.5 11v168h-510v-168q29 -8 59.5 -12t63.5 -8l-127 -266q-23 -47 -45.5 -96.5t-42.5 -100.5h-6q-16 47 -38 95l-44 96l-125 272 q31 4 61.5 8t59.5 12v168h-527v-168z" />
<glyph unicode="Z" horiz-adv-x="1099" d="M84 0h934v391h-201q-6 -45 -12 -86t-10 -76h-177h-141t-82 -4q16 25 31.5 48.5t32.5 48.5l555 847v213h-918v-376h205q8 41 12 79.5t9 73.5h176q66 0 116 1t86 3q-25 -33 -45 -64.5t-43 -66.5l-528 -827v-205z" />
<glyph unicode="[" horiz-adv-x="671" d="M145 -420h453v211h-207v1593h207v207h-453v-2011z" />
<glyph unicode="\" horiz-adv-x="847" d="M33 1382l534 -1382h252l-540 1382h-246z" />
<glyph unicode="]" horiz-adv-x="671" d="M74 -209v-211h450v2011h-450v-207h205v-1593h-205z" />
<glyph unicode="^" horiz-adv-x="1095" d="M102 782l174 -92l256 506l269 -506l188 94l-350 598h-203z" />
<glyph unicode="_" horiz-adv-x="1024" d="M0 -305v-211h1024v211h-1024z" />
<glyph unicode="`" horiz-adv-x="765" d="M170 1346l377 -195l92 152l-356 225z" />
<glyph unicode="a" d="M78 248q0 -123 75.5 -195.5t215.5 -72.5q115 0 201.5 54t123.5 140l2 -2q-6 -41 -8 -85t-2 -89q44 -2 91 -2q58 0 119 3q110 5 200 15v166q-41 4 -86 9.5t-82 11.5v485q0 84 -19.5 149.5t-67.5 111.5t-130 70.5t-205 24.5q-98 0 -187.5 -15t-168.5 -38v-299h165 q6 35 11.5 69t9.5 64q33 10 69.5 14.5t73.5 4.5q109 0 148 -41t39 -123v-62q-129 -2 -238 -25.5t-186.5 -69.5t-120.5 -113.5t-43 -159.5zM328 287q0 74 76.5 116.5t261.5 42.5v-22q0 -47 -15.5 -91t-44 -79t-68.5 -55.5t-89 -20.5q-57 0 -89 30t-32 79z" />
<glyph unicode="b" horiz-adv-x="1165" d="M-16 1315q45 -4 93 -9.5t85 -11.5v-1265q88 -25 178 -37t201 -12q131 0 233.5 41.5t173 118.5t107.5 184.5t37 236.5q0 227 -95.5 352t-279.5 125q-106 0 -187 -48t-120 -132h-2q8 41 12 96.5t4 102.5v440q-51 2 -102 2q-64 0 -126 -3q-114 -5 -212 -17v-164zM424 207 v287q0 63 15.5 122.5t43 104.5t68.5 72.5t92 27.5h1q173 0 173 -286q0 -94 -19.5 -160t-53 -108t-81 -60.5t-102.5 -18.5q-82 0 -137 19z" />
<glyph unicode="c" horiz-adv-x="915" d="M70 475q0 -129 34.5 -223t98 -153.5t153.5 -88t201 -28.5q88 0 159 13.5t134 33.5l-19 225q-47 -23 -104 -34t-111 -11q-154 0 -214 80t-60 221q0 145 61.5 227t167.5 82q23 0 44.5 -2t39.5 -8q4 -31 9.5 -64.5t11.5 -70.5h168v327q-55 16 -116.5 25.5t-121.5 9.5 q-139 0 -240.5 -43t-167 -118.5t-97 -178t-31.5 -221.5z" />
<glyph unicode="d" horiz-adv-x="1204" d="M72 455q0 -219 92 -348.5t278 -129.5q117 0 199 53.5t123 139.5h4q-6 -41 -9 -87t-3 -85q45 -2 92 -2q60 0 120 3q110 5 199 17v164q-39 4 -85 9.5t-83 11.5v1296q-50 2 -101 2q-64 0 -126 -3q-114 -5 -211 -17v-164q45 -4 93 -9.5t85 -11.5v-266q-35 4 -65.5 6t-63.5 2 q-127 0 -227 -43t-169 -119.5t-105.5 -183t-36.5 -235.5zM346 483q0 188 71.5 267t184.5 79q35 0 69 -4t68 -12v-285q0 -66 -15 -126t-43 -106t-69 -73.5t-92 -27.5q-174 0 -174 288z" />
<glyph unicode="e" horiz-adv-x="1052" d="M70 500q0 -270 130 -395t373 -125q96 0 189.5 16t175.5 49l-25 203q-66 -31 -143.5 -47.5t-153.5 -16.5q-280 0 -280 277v6h631q4 33 6 62.5t2 56.5q0 94 -25.5 177t-78 144.5t-133.5 97t-191 35.5q-115 0 -204 -41t-149.5 -112.5t-92 -171t-31.5 -215.5zM340 645 q10 92 63.5 147.5t135.5 55.5q84 0 132 -54q44 -49 44 -134v-15h-375z" />
<glyph unicode="f" horiz-adv-x="768" d="M29 815h204v-625q-47 -4 -92 -10t-86 -14v-166h619v166q-41 8 -86 14t-92 10v625h241v203h-241v86q0 102 43 148t129 46q29 0 63.5 -4t71.5 -14l18 215q-47 10 -90 13t-84 3q-414 0 -414 -411v-82h-204v-203z" />
<glyph unicode="g" horiz-adv-x="1136" d="M72 -217q0 -150 115.5 -225.5t320.5 -75.5q127 0 230.5 32.5t177 88t113.5 129t40 157.5q0 145 -92 220t-258 75h-158q-90 0 -124 14.5t-34 49.5q0 18 11.5 36.5t36.5 28.5q23 -4 47 -6t47 -2q223 0 335.5 103.5t112.5 269.5q0 43 -14 78t-37 57h137v205h-344 q-41 10 -85 16t-93 6q-115 0 -202 -30.5t-144 -85t-86 -125t-29 -150.5q0 -100 40 -173t110 -111q-53 -23 -86 -72t-33 -109q0 -53 26.5 -93t73.5 -62q-63 -31 -109 -98.5t-46 -147.5zM330 -168q0 43 23.5 82t66.5 63h49h178q86 0 124 -34.5t38 -87.5q0 -76 -66.5 -124 t-195.5 -48q-98 0 -157.5 38.5t-59.5 110.5zM346 666q0 82 53.5 133t147.5 51q96 0 146 -50t50 -136t-53 -133.5t-143 -47.5q-98 0 -149.5 48.5t-51.5 134.5z" />
<glyph unicode="h" horiz-adv-x="1302" d="M37 0h590v168q-35 10 -74 14t-76 8v302q0 68 18.5 127t50.5 104t75 71.5t92 26.5q74 0 100.5 -45t26.5 -125v-651h428v166q-37 8 -82 14t-86 10v525q0 68 -15.5 126t-50.5 103t-93 70.5t-144 25.5q-119 0 -204 -52t-130 -138l-4 2q10 45 14 102.5t4 104.5v438 q-51 2 -102 2q-65 0 -127 -3q-114 -5 -211 -17v-164q45 -4 93 -9.5t85 -11.5v-1104q-47 -4 -92 -10t-86 -14v-166z" />
<glyph unicode="i" horiz-adv-x="696" d="M53 0h604v166q-37 8 -79.5 14t-85.5 10v830q-51 2 -102 2q-64 0 -126 -3q-112 -5 -211 -18v-163q45 -4 93.5 -9.5t84.5 -11.5v-627q-47 -4 -92 -10t-86 -14v-166zM199 1309q0 -66 47 -113t114 -47q68 0 116 47t48 113t-48 111.5t-116 45.5t-114.5 -46t-46.5 -111z" />
<glyph unicode="j" horiz-adv-x="632" d="M-63 -489q35 -10 75.5 -14.5t75.5 -4.5q111 0 188.5 28.5t125 84t69 136.5t21.5 183v1096q-51 2 -102 2q-63 0 -126 -3q-114 -5 -213 -18v-163q45 -4 93.5 -9.5t84.5 -11.5v-919q0 -104 -32.5 -145.5t-114.5 -41.5q-33 0 -66.5 6.5t-62.5 16.5zM197 1309q0 -66 48 -113 t115 -47q68 0 116 47t48 113t-48 111.5t-116 45.5t-115.5 -46t-47.5 -111z" />
<glyph unicode="k" horiz-adv-x="1230" d="M37 0h569v168q-29 10 -61.5 14t-67.5 8v326l375 -516h340v170q-82 16 -145 23l-277 356l258 278q35 4 71 9.5t64 13.5v168h-549v-168q33 -12 97 -19l-234 -274v940q-51 2 -102 2q-65 0 -127 -3q-114 -5 -211 -17v-164q45 -4 93 -9.5t85 -11.5v-1104q-47 -4 -92 -10 t-86 -14v-166z" />
<glyph unicode="l" horiz-adv-x="679" d="M37 0h606v166q-37 8 -79 14t-87 10v1307q-51 2 -102 2q-65 0 -127 -3q-114 -5 -211 -17v-164q45 -4 93 -9.5t85 -11.5v-1104q-47 -4 -92 -10t-86 -14v-166z" />
<glyph unicode="m" horiz-adv-x="1923" d="M53 0h588v168q-35 10 -74 14t-75 8v297q0 72 19 133.5t52 105.5t75 69.5t87 25.5q76 0 98.5 -50t22.5 -126v-645h407v168q-35 10 -72.5 14t-76.5 8v297q0 74 20.5 135.5t53 105.5t74.5 68.5t85 24.5q72 0 96.5 -47t24.5 -129v-645h428v166q-37 8 -79 14t-87 10v510 q0 174 -78.5 257t-226.5 83q-66 0 -119 -17t-94 -47t-70.5 -67t-48.5 -73q-10 37 -29.5 73.5t-52 65.5t-82 47t-116.5 18q-115 0 -202 -55t-134 -149h-2q6 45 9 97t3 87q-45 2 -93 2q-58 0 -120 -3q-112 -5 -211 -18v-163q45 -4 93.5 -9.5t84.5 -11.5v-627q-47 -4 -92 -10 t-86 -14v-166z" />
<glyph unicode="n" horiz-adv-x="1316" d="M53 0h588v168q-35 10 -74 14t-75 8v302q0 68 18 127t50 104t76 71.5t93 26.5q72 0 98.5 -45t26.5 -125v-651h428v166q-37 8 -80 14t-88 10v525q0 68 -15.5 126t-50 103t-93 70.5t-144.5 25.5q-125 0 -212 -56t-134 -148l-2 2q8 41 11 94t3 88q-46 2 -94 2q-59 0 -121 -3 q-110 -5 -209 -18v-163q45 -4 93.5 -9.5t84.5 -11.5v-627q-47 -4 -92 -10t-86 -14v-166z" />
<glyph unicode="o" d="M68 492q0 -135 33.5 -232.5t95 -160t149.5 -91t197 -28.5q115 0 210 40.5t164.5 113.5t107.5 173t38 221q0 262 -129 386t-346 124q-117 0 -212 -41t-164 -113.5t-106.5 -173t-37.5 -218.5zM338 518q0 78 19.5 134.5t52 93t74.5 54t85 17.5q117 0 170.5 -78t53.5 -225 q0 -156 -64.5 -233.5t-163.5 -77.5q-227 0 -227 315z" />
<glyph unicode="p" horiz-adv-x="1220" d="M47 -328v-166h617v166q-41 8 -86.5 14.5t-92.5 10.5v297q33 -4 64 -6t67 -2q131 0 231.5 40t168 115.5t102.5 182t35 239.5q0 227 -95 351t-278 124q-117 0 -196.5 -50t-122.5 -140h-4q6 41 9 88t3 84q-45 2 -92 2q-59 0 -121 -3q-111 -5 -209 -18v-163q45 -4 93 -9.5 t85 -11.5v-1120q-47 -4 -92 -10t-86 -15zM485 207v282q0 66 15.5 126.5t43 106.5t68.5 73.5t93 27.5h1q173 0 173 -288q0 -188 -72 -267.5t-184 -79.5q-76 0 -138 19z" />
<glyph unicode="q" horiz-adv-x="1144" d="M74 455q0 -236 96 -357t281 -121q102 0 181 50.5t120 138.5l4 -2q-10 -49 -12.5 -102.5t-2.5 -94.5v-270q-47 -4 -92 -10t-86 -15v-166h611v166q-41 8 -83 14.5t-90 10.5v1309q-84 14 -174 22t-198 8q-135 0 -238.5 -43t-174.5 -119.5t-106.5 -183t-35.5 -235.5zM348 483 q0 188 72 267t184 79q39 0 72 -4t65 -10v-283q0 -68 -15 -128t-44 -107t-70 -74.5t-92 -27.5q-172 0 -172 288z" />
<glyph unicode="r" horiz-adv-x="839" d="M53 0h617v166q-41 8 -86 14t-92 10v226q0 213 72 304q55 69 160 69q33 0 71 -7l12 258q-19 2 -37 2q-51 0 -93 -13q-56 -17 -97 -49t-70 -75t-47 -92h-4q10 53 14 109.5t4 97.5q-46 2 -94 2q-59 0 -121 -3q-110 -5 -209 -18v-163q45 -4 93.5 -9.5t84.5 -11.5v-627 q-47 -4 -92 -10t-86 -14v-166z" />
<glyph unicode="s" horiz-adv-x="899" d="M72 713q0 -84 36.5 -136.5t91 -84t118 -50t117.5 -38t91 -44t37 -69.5q0 -57 -49 -89t-127 -32q-25 0 -52.5 3t-49.5 7q-4 35 -8.5 69t-12.5 64h-166v-305q63 -14 135 -21t132 -7q106 0 191 26.5t144.5 72.5t92 110.5t32.5 138.5q0 80 -36.5 129t-91 80.5t-118 50 t-117.5 38t-91 46t-37 71.5q0 51 39 82t123 31q45 0 92 -10q4 -33 8 -67t12 -64h166v293q-70 16 -138.5 23t-125.5 7q-109 0 -190.5 -24.5t-137 -68.5t-83 -103.5t-27.5 -128.5z" />
<glyph unicode="t" horiz-adv-x="768" d="M12 815h176v-516q0 -90 14.5 -150.5t48.5 -98.5t91 -54t141 -16q53 0 108.5 7t104.5 19v211q-59 -16 -127 -16t-94 34.5t-26 133.5v446h247v203h-247v383l-263 -70v-313h-174v-203z" />
<glyph unicode="u" horiz-adv-x="1292" d="M37 838q41 -4 86 -9.5t82 -11.5v-514q0 -68 15.5 -126t50 -103t93 -71t144.5 -26q125 0 212 56.5t134 148.5l4 -2q-8 -41 -10 -92t-2 -90q44 -2 91 -2q59 0 119 3q110 5 199 15v166q-41 4 -85 9.5t-80 11.5v819q-53 2 -106.5 2t-106.5 -2q-107 -4 -199 -14v-168 q39 -4 79 -9.5t70 -9.5v-293q0 -68 -18 -127t-50 -104t-76 -71.5t-93 -26.5q-72 0 -98.5 45t-26.5 125v653q-51 2 -102 2q-63 0 -125 -3q-112 -5 -201 -15v-166z" />
<glyph unicode="v" horiz-adv-x="1157" d="M16 850q27 -8 54.5 -12t56.5 -9l285 -829h331l289 829q29 4 56.5 8.5t52.5 12.5v168h-486v-168q53 -12 109 -19l-113 -327q-18 -53 -33.5 -114.5t-29.5 -123.5h-4q-16 66 -34 125.5t-36 116.5l-111 323q55 6 107 19v168h-494v-168z" />
<glyph unicode="w" horiz-adv-x="1736" d="M16 850q47 -14 111 -21l246 -829h286l129 424q18 63 36 123.5t32 132.5h2q16 -66 29.5 -120t30.5 -107l147 -453h291l254 829q63 7 110 21v168h-463v-168q23 -6 49.5 -10t53.5 -9l-90 -309q-16 -59 -29.5 -110.5t-26.5 -108.5h-4q-16 66 -31.5 127.5t-41.5 142.5 l-140 445h-241l-140 -445q-20 -61 -38.5 -127.5t-32.5 -142.5h-2q-12 57 -28.5 116.5t-33.5 119.5l-80 292q51 6 103 19v168h-488v-168z" />
<glyph unicode="x" horiz-adv-x="1110" d="M20 0h345l178 338l178 -338h369v170q-39 8 -79 14t-77 11l-201 321l187 307q39 4 77.5 10.5t77.5 14.5v170h-334l-178 -330l-176 330h-354v-170q41 -8 80 -14.5t75 -10.5l197 -309l-211 -319q-37 -4 -76 -10.5t-78 -14.5v-170z" />
<glyph unicode="y" horiz-adv-x="1159" d="M16 850q25 -8 53.5 -12t57.5 -9l283 -829h75l-34 -98q-20 -57 -42 -94t-47.5 -59.5t-54 -32t-61.5 -9.5q-35 0 -70 5t-76 18l-14 -226q37 -8 81 -12t77 -4q88 0 156.5 19.5t124 66.5t99.5 125t85 195l323 935q64 7 111 21v168h-479v-168q51 -12 102 -19l-90 -262 q-29 -78 -50.5 -157.5t-37.5 -143.5h-2q-18 72 -38 138.5t-42 134.5l-103 290q51 6 103 19v168h-490v-168z" />
<glyph unicode="z" horiz-adv-x="937" d="M78 0h778v338h-170q-8 -35 -12 -66.5t-8 -62.5h-105h-98q-51 0 -84 -2l465 618v193h-760v-322h172q6 35 11 63.5t9 61.5h93q47 0 100 1t82 3l-473 -632v-193z" />
<glyph unicode="{" horiz-adv-x="741" d="M55 543q102 -6 153.5 -54.5t51.5 -175.5v-276q0 -240 86 -348.5t287 -108.5h43v211q-49 0 -83 10.5t-53.5 37t-27.5 74.5t-8 122v274q0 164 -51.5 241t-137.5 91v2q86 16 137.5 88t51.5 236v176q0 74 8 121t27.5 73.5t53.5 36.5t83 10v207h-43q-203 0 -288 -114.5 t-85 -337.5v-178q0 -66 -12 -107t-38 -65.5t-65 -36t-90 -13.5v-196z" />
<glyph unicode="|" horiz-adv-x="565" d="M174 -512h209v2048h-209v-2048z" />
<glyph unicode="}" horiz-adv-x="737" d="M72 -209v-211h45q199 0 284.5 108.5t85.5 348.5v276q0 127 51.5 175.5t153.5 54.5v196q-53 2 -91 13.5t-63.5 37t-38 67.5t-12.5 110v172q0 223 -84 337.5t-286 114.5h-45v-207q49 0 82.5 -10t54 -36.5t29 -73.5t8.5 -121v-182q0 -160 50 -233t138 -85v-2 q-86 -14 -137 -91t-51 -241v-274q0 -74 -8.5 -122t-29 -74.5t-54 -37t-82.5 -10.5z" />
<glyph unicode="~" horiz-adv-x="1173" d="M80 614l80 -194q33 31 83 57.5t113 26.5q53 0 102.5 -18.5t99.5 -40t106.5 -39t123.5 -17.5q92 0 170.5 37t131.5 100l-82 189q-49 -45 -103.5 -71t-109.5 -26t-100.5 17.5t-91.5 39t-100 40t-126 18.5q-96 0 -170 -35.5t-127 -83.5z" />
<glyph unicode="&#xa1;" horiz-adv-x="622" d="M143 885q0 -66 46.5 -110t113.5 -44q68 0 114 44t46 110t-46 110.5t-114 44.5t-114 -45t-46 -110zM158 -449h286l-32 1084h-226z" />
<glyph unicode="&#xa2;" horiz-adv-x="978" d="M82 551q0 -203 94 -330t281 -149v-211h196v207q59 4 116.5 16t111.5 29l-17 229q-53 -23 -115.5 -36t-121.5 -13q-76 0 -128.5 20.5t-85 56.5t-47 86t-14.5 109q0 139 65.5 215t170.5 74q25 0 48 -3t46 -7q4 -35 9 -69t14 -75h165v330q-53 16 -108.5 24.5t-108.5 8.5v180 h-196v-190q-88 -16 -158 -60.5t-118 -111t-73.5 -150.5t-25.5 -180z" />
<glyph unicode="&#xa3;" horiz-adv-x="1087" d="M109 0h878v387h-194q-8 -37 -14.5 -81t-10.5 -83h-209q-35 0 -70.5 -2t-62.5 -4q74 66 111.5 139.5t37.5 175.5q0 25 -2 53.5t-6 57.5h240v201h-258q-8 63 -14.5 120.5t-6.5 98.5q0 172 146 172q12 0 25.5 -1t25.5 -3q4 -33 9 -65.5t14 -67.5h165v323q-51 12 -121.5 20.5 t-119.5 8.5q-205 0 -306.5 -92t-101.5 -297q0 -47 8.5 -106.5t14.5 -110.5h-170v-201h190q4 -53 8 -90t4 -53q0 -109 -55 -174.5t-155 -124.5v-201z" />
<glyph unicode="&#xa4;" horiz-adv-x="1136" d="M72 455q0 -233 96 -354t281 -121q102 0 181 50t120 138h4q-8 -41 -9.5 -76t-1.5 -72v-53q0 -141 -73.5 -197.5t-218.5 -56.5q-72 0 -154 16.5t-150 43.5l-20 -244q66 -16 145.5 -27.5t165.5 -11.5q168 0 277.5 41t172 108.5t87 152.5t24.5 175v1039q-84 14 -174 22 t-198 8q-135 0 -238.5 -43t-174.5 -119.5t-106.5 -183t-35.5 -235.5zM346 483q0 188 71.5 266t184.5 78q78 0 137 -14v-281q0 -68 -15 -128t-43 -106t-69 -73.5t-92 -27.5q-174 0 -174 286z" />
<glyph unicode="&#xa5;" horiz-adv-x="1243" d="M20 1214q23 -6 53.5 -11t53.5 -7l281 -520h-250v-146h329v-118h-329v-148h329v-90q-47 -4 -92 -10t-86 -14v-150h621v150q-41 8 -86 14t-92 10v90h329v148h-329v118h329v146h-247l284 520q27 2 55.5 7t51.5 11v168h-502v-168q29 -8 60.5 -12t64.5 -8l-115 -225 q-25 -51 -54.5 -103.5t-49.5 -99.5h-4q-20 43 -45 89t-52 99l-116 240q31 4 62.5 8t60.5 12v168h-515v-168z" />
<glyph unicode="&#xa7;" horiz-adv-x="1044" d="M121 690q0 -90 32.5 -162.5t82 -133t107.5 -113t107.5 -98.5t82 -90t32.5 -91q0 -53 -40 -92t-136 -39q-39 0 -79 7t-74 18l-17 -228q35 -6 81 -11t83 -5q127 0 215 31.5t143.5 81t80 111t24.5 120.5q0 63 -19.5 116.5t-48.5 90.5q59 47 100.5 124t41.5 167 q0 88 -33 162.5t-82 137t-106.5 116t-106.5 101.5t-82 91t-33 88q0 59 37 91t119 32q74 0 141 -19l14 219q-31 8 -69.5 11.5t-79.5 3.5q-119 0 -202 -30t-136 -78t-77.5 -110.5t-24.5 -127.5q0 -117 63 -199q-61 -47 -101 -124t-40 -169zM358 723q0 84 50 123 q55 -61 105 -110.5t88 -94.5t60.5 -88t22.5 -92q0 -35 -13.5 -69t-35.5 -52q-74 70 -126 124t-86 98t-49.5 82t-15.5 79z" />
<glyph unicode="&#xa8;" horiz-adv-x="1118" d="M193 1327q0 -59 40.5 -100t100.5 -41q59 0 100 41t41 100t-41 100t-100 41t-100 -41t-41 -100zM606 1327q0 -59 41 -100t101 -41q59 0 100 41t41 100t-41 100t-100 41t-100.5 -41t-41.5 -100z" />
<glyph unicode="&#xa9;" horiz-adv-x="1560" d="M78 682q0 -145 54 -272t148.5 -222.5t222.5 -149.5t275 -54q145 0 272.5 55t222.5 150.5t150.5 222.5t55.5 272t-55.5 272t-150.5 222.5t-222.5 149.5t-272.5 54t-272 -55t-222.5 -150.5t-150.5 -222.5t-55 -272zM274 684q0 104 40 196.5t107.5 160t160 107.5t196.5 40 t195.5 -40t160 -108.5t107.5 -161t39 -196.5t-39 -196.5t-107.5 -160t-159.5 -107.5t-196 -40q-104 0 -196.5 40t-160 108.5t-107.5 161t-40 196.5zM440 670q0 -78 18.5 -141.5t60.5 -109.5t107.5 -71.5t157.5 -25.5q49 0 98.5 7t102.5 21l-12 170q-78 -27 -152 -26 q-94 0 -134 47t-40 147q0 90 32 142.5t105 52.5q10 0 22.5 -1t22.5 -3q8 -49 19 -105h129v256q-41 10 -82 15.5t-82 5.5q-102 0 -173 -32t-115 -84t-64.5 -122t-20.5 -143z" />
<glyph unicode="&#xaa;" horiz-adv-x="876" d="M78 844q0 -84 53 -138.5t164 -54.5q76 0 137.5 36t83.5 87h4q-6 -29 -8 -57.5t-2 -50.5q82 -2 171 1t161 13v147q-29 2 -67 7.5t-66 9.5v301q0 57 -14.5 105t-51.5 82t-98.5 52.5t-153.5 18.5q-74 0 -143.5 -13.5t-118.5 -27.5v-223h135q4 20 7 44.5t8 47.5q20 4 41.5 8 t50.5 4q78 0 102.5 -29.5t24.5 -70.5v-33q-92 -2 -170 -18.5t-133.5 -50t-86 -83t-30.5 -114.5zM281 874q0 55 55 79t162 24v-21q0 -20 -9.5 -45.5t-27 -48t-44 -38t-61.5 -15.5q-37 0 -56 18.5t-19 46.5z" />
<glyph unicode="&#xab;" horiz-adv-x="1093" d="M86 508l219 -397l211 98l-180 299l178 307l-203 94zM530 508l242 -387l205 98l-195 289l193 295l-197 98z" />
<glyph unicode="&#xac;" horiz-adv-x="1142" d="M70 430h735v-305h231v518h-966v-213z" />
<glyph unicode="&#xad;" horiz-adv-x="684" d="M90 416h504v209h-504v-209z" />
<glyph unicode="&#xae;" horiz-adv-x="1155" d="M98 1090q0 -100 37 -186.5t101.5 -150t152.5 -100.5t189 -37q98 0 185 37t152.5 101.5t103.5 151t38 184.5q0 100 -38 186t-102.5 149.5t-151.5 99.5t-187 36q-98 0 -186.5 -37t-153 -100.5t-102.5 -149.5t-38 -184zM256 1092q0 66 25.5 124t68.5 102t101.5 69.5 t126.5 25.5q66 0 124 -26.5t101 -70.5t68.5 -103.5t25.5 -125.5q0 -68 -25.5 -126t-68.5 -101t-101.5 -68.5t-123.5 -25.5q-68 0 -126.5 25.5t-101.5 70.5t-68.5 103.5t-25.5 126.5zM387 862h201v76q-20 8 -41 12v84h31l65 -172h139v76q-10 4 -20 7t-21 5l-30 74 q-8 18 -23 43q35 14 57.5 47t22.5 76q0 66 -46 99.5t-132 33.5q-35 0 -79 -2t-73 -2h-51v-74q12 -4 25.5 -7t21.5 -7v-281q-18 -4 -47 -14v-74zM547 1124v101q4 0 18.5 2t18.5 -2q59 2 59 -45q0 -23 -16.5 -40.5t-53.5 -15.5q-2 -2 -12 -1t-14 1z" />
<glyph unicode="&#xaf;" horiz-adv-x="704" d="M119 1229h444v190h-444v-190z" />
<glyph unicode="&#xb0;" horiz-adv-x="794" d="M86 1231q0 -133 79 -209t216 -76q59 0 116.5 18.5t101.5 55.5t70.5 91t26.5 126q0 57 -17 108.5t-53 90.5t-93.5 61.5t-137.5 22.5q-57 0 -112.5 -19.5t-99.5 -56.5t-70.5 -91.5t-26.5 -121.5zM281 1233q0 55 31.5 89t80.5 34q57 0 83 -39t26 -80q0 -53 -30 -89t-81 -36 q-49 0 -79.5 32t-30.5 89z" />
<glyph unicode="&#xb1;" horiz-adv-x="1206" d="M98 545h381v-383h248v383h381v215h-381v379h-248v-379h-381v-215zM109 57v-219h989v219h-989z" />
<glyph unicode="&#xb4;" horiz-adv-x="804" d="M184 1303l90 -150l377 195l-108 180z" />
<glyph unicode="&#xb6;" horiz-adv-x="1206" d="M113 930q0 -92 28.5 -176t88 -146.5t150.5 -98.5t218 -36v909q-109 0 -198 -31.5t-152.5 -91t-99 -143.5t-35.5 -186zM614 12v-209h367v1371h133v208h-356v-1370h-144z" />
<glyph unicode="&#xb7;" horiz-adv-x="550" d="M106 588q0 -72 49.5 -121t120.5 -49q70 0 120 49t50 121q0 70 -50 120t-120 50q-72 0 -121 -50.5t-49 -119.5z" />
<glyph unicode="&#xb8;" horiz-adv-x="819" d="M252 -410l123 -100q96 41 150.5 89t75 100.5t11 108t-36.5 108.5h-239q49 -86 30.5 -164t-114.5 -142z" />
<glyph unicode="&#xba;" horiz-adv-x="872" d="M80 1018q0 -100 25.5 -171t70.5 -115t105.5 -63.5t132.5 -19.5q80 0 148.5 28t118.5 78t78.5 121.5t28.5 161.5q0 100 -25.5 170t-71.5 114t-108.5 63.5t-136.5 19.5q-78 0 -144 -26.5t-115.5 -77t-78 -122t-28.5 -161.5zM289 1030q0 51 12 88t32.5 60.5t47.5 34t53 10.5 q78 0 109.5 -54.5t31.5 -140.5q0 -109 -44 -154t-103 -45q-39 0 -65.5 16.5t-43 44.5t-23.5 64.5t-7 75.5z" />
<glyph unicode="&#xbb;" horiz-adv-x="1093" d="M117 801l194 -289l-192 -295l196 -96l248 391l-241 389zM578 813l180 -301l-178 -305l202 -96l226 401l-220 397z" />
<glyph unicode="&#xbf;" horiz-adv-x="882" d="M96 -35q0 -80 39 -153.5t119 -132t200.5 -95.5t284.5 -43l33 238q-180 6 -285.5 64.5t-105.5 150.5q0 49 29.5 88t71.5 78t86 82t75 98t37 127t-29 168h-254q27 -82 14.5 -140.5t-46 -105.5t-79.5 -88t-88 -88t-72 -106.5t-30 -141.5zM356 885q0 -66 46.5 -110t115.5 -44 q68 0 114 44t46 110t-46 110.5t-114 44.5q-70 0 -116 -45t-46 -110z" />
<glyph unicode="&#xc0;" horiz-adv-x="1427" d="M16 0h521v166q-33 6 -72 12t-74 10l58 164h503l60 -164q-35 -4 -74 -10t-72 -12v-166h545v166q-25 8 -53.5 13t-54.5 7l-431 1196h-325l-422 -1196q-27 -2 -55.5 -7t-53.5 -13v-166zM403 1665l377 -195l92 152l-356 225zM514 559l119 330q23 59 38 117.5t27 111.5h2 q12 -59 27.5 -111.5t36.5 -107.5l123 -340h-373z" />
<glyph unicode="&#xc1;" horiz-adv-x="1427" d="M16 0h521v166q-33 6 -72 12t-74 10l58 164h503l60 -164q-35 -4 -74 -10t-72 -12v-166h545v166q-25 8 -53.5 13t-54.5 7l-431 1196h-325l-422 -1196q-27 -2 -55.5 -7t-53.5 -13v-166zM514 559l119 330q23 59 38 117.5t27 111.5h2q12 -59 27.5 -111.5t36.5 -107.5l123 -340 h-373zM542 1622l90 -150l377 195l-108 180z" />
<glyph unicode="&#xc2;" horiz-adv-x="1427" d="M16 0h521v166q-33 6 -72 12t-74 10l58 164h503l60 -164q-35 -4 -74 -10t-72 -12v-166h545v166q-25 8 -53.5 13t-54.5 7l-431 1196h-325l-422 -1196q-27 -2 -55.5 -7t-53.5 -13v-166zM399 1636l78 -152l227 129l232 -129l84 154l-314 178zM514 559l119 330q23 59 38 117.5 t27 111.5h2q12 -59 27.5 -111.5t36.5 -107.5l123 -340h-373z" />
<glyph unicode="&#xc3;" horiz-adv-x="1427" d="M16 0h521v166q-33 6 -72 12t-74 10l58 164h503l60 -164q-35 -4 -74 -10t-72 -12v-166h545v166q-25 8 -53.5 13t-54.5 7l-431 1196h-325l-422 -1196q-27 -2 -55.5 -7t-53.5 -13v-166zM342 1705l51 -174q29 29 65 48.5t75 19.5q47 0 79.5 -15.5t65.5 -35t72 -34.5t98 -15 t117.5 27.5t93.5 58.5l-51 174q-27 -27 -65 -46.5t-81 -19.5q-45 0 -77.5 15.5t-66.5 35t-72 35t-93 15.5q-59 0 -113.5 -25t-97.5 -64zM514 559l119 330q23 59 38 117.5t27 111.5h2q12 -59 27.5 -111.5t36.5 -107.5l123 -340h-373z" />
<glyph unicode="&#xc4;" horiz-adv-x="1427" d="M16 0h521v166q-33 6 -72 12t-74 10l58 164h503l60 -164q-35 -4 -74 -10t-72 -12v-166h545v166q-25 8 -53.5 13t-54.5 7l-431 1196h-325l-422 -1196q-27 -2 -55.5 -7t-53.5 -13v-166zM359 1628q0 -59 40.5 -100t100.5 -41q59 0 100 41t41 100t-41 100t-100 41t-100 -41 t-41 -100zM514 559l119 330q23 59 38 117.5t27 111.5h2q12 -59 27.5 -111.5t36.5 -107.5l123 -340h-373zM772 1628q0 -59 41 -100t101 -41q59 0 100 41t41 100t-41 100t-100 41t-100.5 -41t-41.5 -100z" />
<glyph unicode="&#xc5;" horiz-adv-x="1427" d="M16 0h521v166q-33 6 -72 12t-74 10l58 164h503l60 -164q-35 -4 -74 -10t-72 -12v-166h545v166q-25 8 -53.5 13t-54.5 7l-431 1196h-325l-422 -1196q-27 -2 -55.5 -7t-53.5 -13v-166zM449 1583q0 -55 20.5 -100t55 -79t81.5 -52.5t103 -18.5q53 0 100 19.5t83 53.5 t56.5 79t20.5 98t-20.5 99t-55.5 79t-82 51.5t-102 18.5q-53 0 -101.5 -18.5t-83 -51.5t-55 -79t-20.5 -99zM514 559l119 330q23 59 38 117.5t27 111.5h2q12 -59 27.5 -111.5t36.5 -107.5l123 -340h-373zM600 1583q0 45 32 77t77 32t75.5 -32t30.5 -77t-30.5 -77t-75.5 -32 t-77 32t-32 77z" />
<glyph unicode="&#xc6;" horiz-adv-x="1693" d="M-63 0h501v166q-27 6 -61.5 12t-63.5 10l84 164h414v-162q-35 -4 -74 -9t-71 -13v-168h919v362h-201q-8 -41 -13 -76.5t-9 -70.5h-285v399h223q4 -29 9.5 -57.5t15.5 -54.5h170v416h-170q-14 -49 -25 -113h-223v369h275q4 -29 9 -65t13 -75h197v348h-1174v-165 q41 -8 86 -14.5t92 -10.5l-528 -1006q-27 -2 -56.5 -7t-53.5 -13v-166zM498 559l166 311q43 84 75.5 156t63.5 143h8v-610h-313z" />
<glyph unicode="&#xc7;" horiz-adv-x="1193" d="M78 647q0 -156 41 -279.5t123 -209.5t206.5 -132t290.5 -46q98 0 190.5 15t178.5 44l-16 246q-66 -27 -142 -42.5t-151 -15.5q-117 0 -198 32t-131 91.5t-73.5 145.5t-23.5 196q0 104 23.5 189.5t68.5 145.5t112.5 93t153.5 33q35 0 69 -4t70 -12q4 -41 10.5 -84 t16.5 -90h201v397q-78 18 -159 27.5t-159 9.5q-176 0 -308 -54.5t-220 -152.5t-131 -236.5t-43 -306.5zM496 -410l123 -100q96 41 150.5 89t75 100.5t11 108t-36.5 108.5h-239q49 -86 30.5 -164t-114.5 -142z" />
<glyph unicode="&#xc8;" horiz-adv-x="1099" d="M47 0h946v362h-198q-8 -41 -13.5 -76.5t-9.5 -70.5h-280v399h223q4 -29 9 -57.5t15 -54.5h170v416h-170q-14 -49 -24 -113h-223v369h278q4 -29 9 -65t12 -75h198v348h-942v-165q41 -8 86 -14.5t92 -10.5v-1002q-47 -4 -92 -10t-86 -14v-166zM244 1665l377 -195l92 152 l-356 225z" />
<glyph unicode="&#xc9;" horiz-adv-x="1099" d="M47 0h946v362h-198q-8 -41 -13.5 -76.5t-9.5 -70.5h-280v399h223q4 -29 9 -57.5t15 -54.5h170v416h-170q-14 -49 -24 -113h-223v369h278q4 -29 9 -65t12 -75h198v348h-942v-165q41 -8 86 -14.5t92 -10.5v-1002q-47 -4 -92 -10t-86 -14v-166zM422 1622l90 -150l377 195 l-108 180z" />
<glyph unicode="&#xca;" horiz-adv-x="1099" d="M47 0h946v362h-198q-8 -41 -13.5 -76.5t-9.5 -70.5h-280v399h223q4 -29 9 -57.5t15 -54.5h170v416h-170q-14 -49 -24 -113h-223v369h278q4 -29 9 -65t12 -75h198v348h-942v-165q41 -8 86 -14.5t92 -10.5v-1002q-47 -4 -92 -10t-86 -14v-166zM254 1636l78 -152l227 129 l232 -129l84 154l-314 178z" />
<glyph unicode="&#xcb;" horiz-adv-x="1099" d="M47 0h946v362h-198q-8 -41 -13.5 -76.5t-9.5 -70.5h-280v399h223q4 -29 9 -57.5t15 -54.5h170v416h-170q-14 -49 -24 -113h-223v369h278q4 -29 9 -65t12 -75h198v348h-942v-165q41 -8 86 -14.5t92 -10.5v-1002q-47 -4 -92 -10t-86 -14v-166zM205 1628q0 -59 40.5 -100 t100.5 -41q59 0 100 41t41 100t-41 100t-100 41t-100 -41t-41 -100zM618 1628q0 -59 41 -100t101 -41q59 0 100 41t41 100t-41 100t-100 41t-100.5 -41t-41.5 -100z" />
<glyph unicode="&#xcc;" horiz-adv-x="714" d="M41 0h623v166q-41 8 -86.5 14t-92.5 10v1002q47 4 92.5 10t86.5 15v165h-623v-165q41 -8 86 -14.5t92 -10.5v-1002q-47 -4 -92 -10t-86 -14v-166zM61 1665l375 -195l92 152l-356 225z" />
<glyph unicode="&#xcd;" horiz-adv-x="714" d="M41 0h623v166q-41 8 -86.5 14t-92.5 10v1002q47 4 92.5 10t86.5 15v165h-623v-165q41 -8 86 -14.5t92 -10.5v-1002q-47 -4 -92 -10t-86 -14v-166zM158 1622l90 -149l377 194l-109 178z" />
<glyph unicode="&#xce;" horiz-adv-x="714" d="M41 0h623v166q-41 8 -86.5 14t-92.5 10v1002q47 4 92.5 10t86.5 15v165h-623v-165q41 -8 86 -14.5t92 -10.5v-1002q-47 -4 -92 -10t-86 -14v-166zM45 1634l78 -151l227 131l232 -131l84 155l-314 179z" />
<glyph unicode="&#xcf;" horiz-adv-x="714" d="M-2 1630q0 -59 41 -100t100 -41t100.5 41t41.5 100t-41 100.5t-101 41.5q-59 0 -100 -41t-41 -101zM41 0h623v166q-41 8 -86.5 14t-92.5 10v1002q47 4 92.5 10t86.5 15v165h-623v-165q41 -8 86 -14.5t92 -10.5v-1002q-47 -4 -92 -10t-86 -14v-166zM412 1630 q0 -59 41 -100t100 -41t100 41t41 100t-41 100.5t-100 41.5t-100 -41t-41 -101z" />
<glyph unicode="&#xd1;" horiz-adv-x="1558" d="M47 0h584v168q-35 10 -74 15t-74 10q0 229 -1 438t-11 366q29 -68 64.5 -142.5t82.5 -152.5l422 -702h342v1190q35 4 67.5 10t61.5 14v168h-526v-168q63 -18 139 -24q0 -229 1 -435t14 -362q-39 78 -73 146.5t-81 144.5l-416 698h-522v-165q41 -8 86 -14.5t92 -10.5v-999 q-47 -4 -92 -11.5t-86 -15.5v-166zM450 1705l51 -174q29 29 65 48.5t75 19.5q47 0 79.5 -15.5t65.5 -35t72 -34.5t98 -15t117.5 27.5t93.5 58.5l-51 174q-27 -27 -65 -46.5t-81 -19.5q-45 0 -77.5 15.5t-66.5 35t-72 35t-93 15.5q-59 0 -113.5 -25t-97.5 -64z" />
<glyph unicode="&#xd2;" horiz-adv-x="1439" d="M68 674q0 -160 38.5 -289t116.5 -220t197 -139.5t276 -48.5q141 0 264 50.5t214.5 145.5t144.5 230.5t53 307.5q0 178 -46 308t-130 216t-199.5 128t-253.5 42q-139 0 -262 -50t-215 -144.5t-145 -229.5t-53 -307zM352 702q0 117 31 204t81 144.5t116.5 86t138.5 28.5 q180 0 274 -122t94 -353q0 -125 -32.5 -214t-86 -146.5t-120 -84t-133.5 -26.5q-92 0 -161 35t-114 97.5t-66.5 151.5t-21.5 199zM442 1665l377 -195l92 152l-356 225z" />
<glyph unicode="&#xd3;" horiz-adv-x="1439" d="M68 674q0 -160 38.5 -289t116.5 -220t197 -139.5t276 -48.5q141 0 264 50.5t214.5 145.5t144.5 230.5t53 307.5q0 178 -46 308t-130 216t-199.5 128t-253.5 42q-139 0 -262 -50t-215 -144.5t-145 -229.5t-53 -307zM352 702q0 117 31 204t81 144.5t116.5 86t138.5 28.5 q180 0 274 -122t94 -353q0 -125 -32.5 -214t-86 -146.5t-120 -84t-133.5 -26.5q-92 0 -161 35t-114 97.5t-66.5 151.5t-21.5 199zM575 1622l90 -150l377 195l-108 180z" />
<glyph unicode="&#xd4;" horiz-adv-x="1439" d="M68 674q0 -160 38.5 -289t116.5 -220t197 -139.5t276 -48.5q141 0 264 50.5t214.5 145.5t144.5 230.5t53 307.5q0 178 -46 308t-130 216t-199.5 128t-253.5 42q-139 0 -262 -50t-215 -144.5t-145 -229.5t-53 -307zM352 702q0 117 31 204t81 144.5t116.5 86t138.5 28.5 q180 0 274 -122t94 -353q0 -125 -32.5 -214t-86 -146.5t-120 -84t-133.5 -26.5q-92 0 -161 35t-114 97.5t-66.5 151.5t-21.5 199zM428 1636l78 -152l227 129l232 -129l84 154l-314 178z" />
<glyph unicode="&#xd5;" horiz-adv-x="1439" d="M68 674q0 -160 38.5 -289t116.5 -220t197 -139.5t276 -48.5q141 0 264 50.5t214.5 145.5t144.5 230.5t53 307.5q0 178 -46 308t-130 216t-199.5 128t-253.5 42q-139 0 -262 -50t-215 -144.5t-145 -229.5t-53 -307zM352 702q0 117 31 204t81 144.5t116.5 86t138.5 28.5 q180 0 274 -122t94 -353q0 -125 -32.5 -214t-86 -146.5t-120 -84t-133.5 -26.5q-92 0 -161 35t-114 97.5t-66.5 151.5t-21.5 199zM362 1712l51 -174q29 29 65 48.5t75 19.5q47 0 79.5 -15.5t65.5 -35t72 -34.5t98 -15t117.5 27.5t93.5 58.5l-51 174q-27 -27 -65 -46.5 t-81 -19.5q-45 0 -77.5 15.5t-66.5 35t-72 35t-93 15.5q-59 0 -113.5 -25t-97.5 -64z" />
<glyph unicode="&#xd6;" horiz-adv-x="1439" d="M68 674q0 -160 38.5 -289t116.5 -220t197 -139.5t276 -48.5q141 0 264 50.5t214.5 145.5t144.5 230.5t53 307.5q0 178 -46 308t-130 216t-199.5 128t-253.5 42q-139 0 -262 -50t-215 -144.5t-145 -229.5t-53 -307zM352 702q0 117 31 204t81 144.5t116.5 86t138.5 28.5 q180 0 274 -122t94 -353q0 -125 -32.5 -214t-86 -146.5t-120 -84t-133.5 -26.5q-92 0 -161 35t-114 97.5t-66.5 151.5t-21.5 199zM386 1628q0 -59 40.5 -100t100.5 -41q59 0 100 41t41 100t-41 100t-100 41t-100 -41t-41 -100zM799 1628q0 -59 41 -100t101 -41q59 0 100 41 t41 100t-41 100t-100 41t-100.5 -41t-41.5 -100z" />
<glyph unicode="&#xd8;" horiz-adv-x="1439" d="M66 676q0 -219 74.5 -384t232.5 -245l-70 -201l193 -61l71 203q29 -6 60.5 -8.5t66.5 -2.5q141 0 263 50.5t213.5 143.5t142.5 227t51 302q0 256 -87 414t-237 227l66 187l-193 61l-67 -192q-27 4 -55.5 6t-57.5 2q-141 0 -263 -49t-212 -143.5t-141 -229.5t-51 -307z M336 696q0 106 25.5 187.5t68.5 138.5t100.5 90t120.5 43q31 4 58.5 5t56.5 -3l-303 -846q-72 57 -99.5 155.5t-27.5 229.5zM647 219l305 862q72 -53 107 -157.5t35 -239.5q0 -117 -29 -203t-76 -143t-110.5 -88t-133.5 -37q-25 -2 -50 -1t-48 7z" />
<glyph unicode="&#xd9;" horiz-adv-x="1456" d="M47 1214q63 -16 129 -22v-713q0 -98 22.5 -189t82 -161t163 -111t267.5 -41q279 0 425 134.5t146 418.5v662q64 6 127 22v168h-537v-168q35 -10 73 -14t75 -8v-672q0 -176 -69.5 -248.5t-223.5 -72.5q-86 0 -141.5 21.5t-87 61.5t-44 94t-12.5 120v696q35 4 74 8t74 14 v168h-543v-168zM399 1665l377 -195l92 152l-356 225z" />
<glyph unicode="&#xda;" horiz-adv-x="1456" d="M47 1214q63 -16 129 -22v-713q0 -98 22.5 -189t82 -161t163 -111t267.5 -41q279 0 425 134.5t146 418.5v662q64 6 127 22v168h-537v-168q35 -10 73 -14t75 -8v-672q0 -176 -69.5 -248.5t-223.5 -72.5q-86 0 -141.5 21.5t-87 61.5t-44 94t-12.5 120v696q35 4 74 8t74 14 v168h-543v-168zM592 1622l90 -150l377 195l-108 180z" />
<glyph unicode="&#xdb;" horiz-adv-x="1456" d="M47 1214q63 -16 129 -22v-713q0 -98 22.5 -189t82 -161t163 -111t267.5 -41q279 0 425 134.5t146 418.5v662q64 6 127 22v168h-537v-168q35 -10 73 -14t75 -8v-672q0 -176 -69.5 -248.5t-223.5 -72.5q-86 0 -141.5 21.5t-87 61.5t-44 94t-12.5 120v696q35 4 74 8t74 14 v168h-543v-168zM414 1636l78 -152l227 129l232 -129l84 154l-314 178z" />
<glyph unicode="&#xdc;" horiz-adv-x="1456" d="M47 1214q63 -16 129 -22v-713q0 -98 22.5 -189t82 -161t163 -111t267.5 -41q279 0 425 134.5t146 418.5v662q64 6 127 22v168h-537v-168q35 -10 73 -14t75 -8v-672q0 -176 -69.5 -248.5t-223.5 -72.5q-86 0 -141.5 21.5t-87 61.5t-44 94t-12.5 120v696q35 4 74 8t74 14 v168h-543v-168zM375 1628q0 -59 40.5 -100t100.5 -41q59 0 100 41t41 100t-41 100t-100 41t-100 -41t-41 -100zM788 1628q0 -59 41 -100t101 -41q59 0 100 41t41 100t-41 100t-100 41t-100.5 -41t-41.5 -100z" />
<glyph unicode="&#xdf;" horiz-adv-x="1417" d="M49 838q45 -4 95.5 -9.5t86.5 -11.5v-627q-47 -4 -92 -10t-86 -14v-166h578v166q-25 8 -64 14t-75 10v799q0 166 61 236.5t176 70.5q86 0 132 -39.5t46 -99.5q0 -63 -34.5 -102t-76.5 -77t-77 -85t-35 -127q0 -82 32 -135t79 -90t101 -63.5t101 -51.5t79 -54.5t32 -72.5 q0 -51 -32 -85t-109 -34q-18 0 -37 2t-33 6q-4 27 -8 61t-10 66h-168v-309q53 -10 115.5 -15t127.5 -5q104 0 183.5 27.5t131.5 74.5t77.5 108.5t25.5 131.5q0 80 -30.5 134t-77.5 93t-100.5 66.5t-100.5 54t-78 55.5t-31 72q0 57 35 90t78 67.5t78 85t35 142.5 q0 68 -28 126t-83 101t-137 66.5t-189 23.5q-242 0 -374.5 -122.5t-137.5 -366.5q-47 -2 -94 -6t-88 -9v-163z" />
<glyph unicode="&#xe0;" d="M78 248q0 -123 75.5 -195.5t215.5 -72.5q115 0 201.5 54t123.5 140l2 -2q-6 -41 -8 -85t-2 -89q100 -4 210 1t200 15v166q-41 4 -86 9.5t-82 11.5v485q0 84 -19.5 149.5t-67.5 111.5t-130 70.5t-205 24.5q-98 0 -187.5 -15t-168.5 -38v-299h165q6 35 11.5 69t9.5 64 q33 10 69.5 14.5t73.5 4.5q109 0 148 -41t39 -123v-62q-129 -2 -238 -25.5t-186.5 -69.5t-120.5 -113.5t-43 -159.5zM244 1346l377 -195l92 152l-356 225zM328 287q0 74 76.5 116.5t261.5 42.5v-22q0 -47 -15.5 -91t-44 -79t-68.5 -55.5t-89 -20.5q-57 0 -89 30t-32 79z" />
<glyph unicode="&#xe1;" d="M78 248q0 -123 75.5 -195.5t215.5 -72.5q115 0 201.5 54t123.5 140l2 -2q-6 -41 -8 -85t-2 -89q100 -4 210 1t200 15v166q-41 4 -86 9.5t-82 11.5v485q0 84 -19.5 149.5t-67.5 111.5t-130 70.5t-205 24.5q-98 0 -187.5 -15t-168.5 -38v-299h165q6 35 11.5 69t9.5 64 q33 10 69.5 14.5t73.5 4.5q109 0 148 -41t39 -123v-62q-129 -2 -238 -25.5t-186.5 -69.5t-120.5 -113.5t-43 -159.5zM328 287q0 74 76.5 116.5t261.5 42.5v-22q0 -47 -15.5 -91t-44 -79t-68.5 -55.5t-89 -20.5q-57 0 -89 30t-32 79zM362 1303l90 -150l377 195l-108 180z" />
<glyph unicode="&#xe2;" d="M78 248q0 -123 75.5 -195.5t215.5 -72.5q115 0 201.5 54t123.5 140l2 -2q-6 -41 -8 -85t-2 -89q100 -4 210 1t200 15v166q-41 4 -86 9.5t-82 11.5v485q0 84 -19.5 149.5t-67.5 111.5t-130 70.5t-205 24.5q-98 0 -187.5 -15t-168.5 -38v-299h165q6 35 11.5 69t9.5 64 q33 10 69.5 14.5t73.5 4.5q109 0 148 -41t39 -123v-62q-129 -2 -238 -25.5t-186.5 -69.5t-120.5 -113.5t-43 -159.5zM227 1317l78 -152l227 129l232 -129l84 154l-314 178zM328 287q0 74 76.5 116.5t261.5 42.5v-22q0 -47 -15.5 -91t-44 -79t-68.5 -55.5t-89 -20.5 q-57 0 -89 30t-32 79z" />
<glyph unicode="&#xe3;" d="M78 248q0 -123 75.5 -195.5t215.5 -72.5q115 0 201.5 54t123.5 140l2 -2q-6 -41 -8 -85t-2 -89q100 -4 210 1t200 15v166q-41 4 -86 9.5t-82 11.5v485q0 84 -19.5 149.5t-67.5 111.5t-130 70.5t-205 24.5q-98 0 -187.5 -15t-168.5 -38v-299h165q6 35 11.5 69t9.5 64 q33 10 69.5 14.5t73.5 4.5q109 0 148 -41t39 -123v-62q-129 -2 -238 -25.5t-186.5 -69.5t-120.5 -113.5t-43 -159.5zM174 1386l51 -174q29 29 65 48.5t75 19.5q47 0 79.5 -15.5t65.5 -35t72 -34.5t98 -15t117.5 27.5t93.5 58.5l-51 174q-27 -27 -65 -46.5t-81 -19.5 q-45 0 -77.5 15.5t-66.5 35t-72 35t-93 15.5q-59 0 -113.5 -25t-97.5 -64zM328 287q0 74 76.5 116.5t261.5 42.5v-22q0 -47 -15.5 -91t-44 -79t-68.5 -55.5t-89 -20.5q-57 0 -89 30t-32 79z" />
<glyph unicode="&#xe4;" d="M78 248q0 -123 75.5 -195.5t215.5 -72.5q115 0 201.5 54t123.5 140l2 -2q-6 -41 -8 -85t-2 -89q100 -4 210 1t200 15v166q-41 4 -86 9.5t-82 11.5v485q0 84 -19.5 149.5t-67.5 111.5t-130 70.5t-205 24.5q-98 0 -187.5 -15t-168.5 -38v-299h165q6 35 11.5 69t9.5 64 q33 10 69.5 14.5t73.5 4.5q109 0 148 -41t39 -123v-62q-129 -2 -238 -25.5t-186.5 -69.5t-120.5 -113.5t-43 -159.5zM189 1327q0 -59 40.5 -100t100.5 -41q59 0 100 41t41 100t-41 100t-100 41t-100 -41t-41 -100zM328 287q0 74 76.5 116.5t261.5 42.5v-22q0 -47 -15.5 -91 t-44 -79t-68.5 -55.5t-89 -20.5q-57 0 -89 30t-32 79zM602 1327q0 -59 41 -100t101 -41q59 0 100 41t41 100t-41 100t-100 41t-100.5 -41t-41.5 -100z" />
<glyph unicode="&#xe5;" d="M78 248q0 -123 75.5 -195.5t215.5 -72.5q115 0 201.5 54t123.5 140l2 -2q-6 -41 -8 -85t-2 -89q100 -4 210 1t200 15v166q-41 4 -86 9.5t-82 11.5v485q0 84 -19.5 149.5t-67.5 111.5t-130 70.5t-205 24.5q-98 0 -187.5 -15t-168.5 -38v-299h165q6 35 11.5 69t9.5 64 q33 10 69.5 14.5t73.5 4.5q109 0 148 -41t39 -123v-62q-129 -2 -238 -25.5t-186.5 -69.5t-120.5 -113.5t-43 -159.5zM269 1366q0 -55 20.5 -100t55 -79t81.5 -52.5t103 -18.5q53 0 100 19.5t83 53.5t56.5 79t20.5 98t-20.5 99t-55.5 79t-82 51.5t-102 18.5 q-53 0 -101.5 -18.5t-83 -51.5t-55 -79t-20.5 -99zM328 287q0 74 76.5 116.5t261.5 42.5v-22q0 -47 -15.5 -91t-44 -79t-68.5 -55.5t-89 -20.5q-57 0 -89 30t-32 79zM420 1366q0 45 32 77t77 32t75.5 -32t30.5 -77t-30.5 -77t-75.5 -32t-77 32t-32 77z" />
<glyph unicode="&#xe6;" horiz-adv-x="1638" d="M78 248q0 -123 73.5 -195.5t210.5 -72.5q74 0 132.5 17t103.5 46t79 65.5t56 75.5l2 2q49 -92 154.5 -149t269.5 -57q96 0 189.5 16t175.5 49l-25 203q-66 -31 -143.5 -47.5t-155.5 -16.5q-281 0 -278 283h630q4 33 6.5 62.5t2.5 56.5q0 94 -26 177t-78 144.5t-133 97 t-191 35.5q-98 0 -175 -34.5t-122 -87.5h-2q-53 70 -140.5 97t-187.5 27q-98 0 -187.5 -15t-168.5 -38v-299h165q6 35 11.5 69t9.5 64q33 10 69.5 14.5t73.5 4.5q106 0 146.5 -42t40.5 -122v-62q-129 -2 -238 -25.5t-186.5 -69.5t-120.5 -113.5t-43 -159.5zM328 287 q0 74 76.5 116.5t261.5 42.5v-22q0 -47 -15.5 -91t-44 -79t-68.5 -55.5t-89 -20.5q-57 0 -89 31t-32 78zM926 645q10 92 63 147.5t135 55.5q84 0 132 -53.5t44 -149.5h-374z" />
<glyph unicode="&#xe7;" horiz-adv-x="915" d="M70 475q0 -129 34.5 -223t98 -153.5t153.5 -88t201 -28.5q88 0 159 13.5t134 33.5l-19 225q-47 -23 -104 -34t-111 -11q-154 0 -214 80t-60 221q0 145 61.5 227t167.5 82q23 0 44.5 -2t39.5 -8q4 -31 9.5 -64.5t11.5 -70.5h168v327q-55 16 -116.5 25.5t-121.5 9.5 q-139 0 -240.5 -43t-167 -118.5t-97 -178t-31.5 -221.5zM309 -410l123 -100q96 41 150.5 89t75 100.5t11 108t-36.5 108.5h-239q49 -86 30.5 -164t-114.5 -142z" />
<glyph unicode="&#xe8;" horiz-adv-x="1052" d="M70 500q0 -270 130 -395t373 -125q96 0 189.5 16t175.5 49l-25 203q-66 -31 -143.5 -47.5t-153.5 -16.5q-283 0 -280 283h631q4 33 6 62.5t2 56.5q0 94 -25.5 177t-78 144.5t-133.5 97t-191 35.5q-115 0 -204 -41t-149.5 -112.5t-92 -171t-31.5 -215.5zM256 1346 l377 -195l92 152l-356 225zM340 645q10 92 63.5 147.5t135.5 55.5q84 0 132 -53.5t44 -149.5h-375z" />
<glyph unicode="&#xe9;" horiz-adv-x="1052" d="M70 500q0 -270 130 -395t373 -125q96 0 189.5 16t175.5 49l-25 203q-66 -31 -143.5 -47.5t-153.5 -16.5q-283 0 -280 283h631q4 33 6 62.5t2 56.5q0 94 -25.5 177t-78 144.5t-133.5 97t-191 35.5q-115 0 -204 -41t-149.5 -112.5t-92 -171t-31.5 -215.5zM340 645 q10 92 63.5 147.5t135.5 55.5q84 0 132 -53.5t44 -149.5h-375zM374 1303l90 -150l377 195l-108 180z" />
<glyph unicode="&#xea;" horiz-adv-x="1052" d="M70 500q0 -270 130 -395t373 -125q96 0 189.5 16t175.5 49l-25 203q-66 -31 -143.5 -47.5t-153.5 -16.5q-283 0 -280 283h631q4 33 6 62.5t2 56.5q0 94 -25.5 177t-78 144.5t-133.5 97t-191 35.5q-115 0 -204 -41t-149.5 -112.5t-92 -171t-31.5 -215.5zM231 1317l78 -152 l227 129l232 -129l84 154l-314 178zM340 645q10 92 63.5 147.5t135.5 55.5q84 0 132 -53.5t44 -149.5h-375z" />
<glyph unicode="&#xeb;" horiz-adv-x="1052" d="M70 500q0 -270 130 -395t373 -125q96 0 189.5 16t175.5 49l-25 203q-66 -31 -143.5 -47.5t-153.5 -16.5q-283 0 -280 283h631q4 33 6 62.5t2 56.5q0 94 -25.5 177t-78 144.5t-133.5 97t-191 35.5q-115 0 -204 -41t-149.5 -112.5t-92 -171t-31.5 -215.5zM199 1327 q0 -59 40.5 -100t100.5 -41q59 0 100 41t41 100t-41 100t-100 41t-100 -41t-41 -100zM340 645q10 92 63.5 147.5t135.5 55.5q84 0 132 -53.5t44 -149.5h-375zM612 1327q0 -59 41 -100t101 -41q59 0 100 41t41 100t-41 100t-100 41t-100.5 -41t-41.5 -100z" />
<glyph unicode="&#xec;" horiz-adv-x="696" d="M20 1346l375 -195l92 152l-356 225zM41 0h604v166q-35 8 -79 14t-87 10v830q-115 4 -227.5 -1t-210.5 -18v-163q45 -4 93 -9.5t85 -11.5v-627q-47 -4 -92 -10t-86 -14v-166z" />
<glyph unicode="&#xed;" horiz-adv-x="696" d="M41 0h604v166q-35 8 -79 14t-87 10v830q-115 4 -227.5 -1t-210.5 -18v-163q45 -4 93 -9.5t85 -11.5v-627q-47 -4 -92 -10t-86 -14v-166zM133 1303l90 -150l377 195l-108 180z" />
<glyph unicode="&#xee;" horiz-adv-x="696" d="M27 1317l79 -152l226 129l233 -129l84 154l-315 178zM41 0h604v166q-35 8 -79 14t-87 10v830q-115 4 -227.5 -1t-210.5 -18v-163q45 -4 93 -9.5t85 -11.5v-627q-47 -4 -92 -10t-86 -14v-166z" />
<glyph unicode="&#xef;" horiz-adv-x="696" d="M-25 1327q0 -59 41 -100t101 -41q59 0 100 41t41 100t-41 100t-100 41t-100.5 -41t-41.5 -100zM41 0h604v166q-35 8 -79 14t-87 10v830q-115 4 -227.5 -1t-210.5 -18v-163q45 -4 93 -9.5t85 -11.5v-627q-47 -4 -92 -10t-86 -14v-166zM389 1327q0 -59 41 -100t100 -41 t100.5 41t41.5 100t-41 100t-101 41q-59 0 -100 -41t-41 -100z" />
<glyph unicode="&#xf1;" horiz-adv-x="1316" d="M53 0h588v168q-35 10 -74 14t-75 8v302q0 68 18 127t50 104t76 71.5t93 26.5q72 0 98.5 -45t26.5 -125v-651h428v166q-37 8 -80 14t-88 10v525q0 68 -15.5 126t-50 103t-93 70.5t-144.5 25.5q-125 0 -212 -56t-134 -148l-2 2q8 41 11 94t3 88q-104 4 -214.5 -1 t-209.5 -18v-163q45 -4 93.5 -9.5t84.5 -11.5v-627q-47 -4 -92 -10t-86 -14v-166zM291 1386l51 -174q29 29 65 48.5t75 19.5q47 0 79.5 -15.5t65.5 -35t72 -34.5t98 -15t117.5 27.5t93.5 58.5l-51 174q-27 -27 -65 -46.5t-81 -19.5q-45 0 -77.5 15.5t-66.5 35t-72 35 t-93 15.5q-59 0 -113.5 -25t-97.5 -64z" />
<glyph unicode="&#xf2;" d="M68 492q0 -135 33.5 -232.5t95 -160t149.5 -91t197 -28.5q115 0 210 40.5t164.5 113.5t107.5 173t38 221q0 262 -129 386t-346 124q-117 0 -212 -41t-164 -113.5t-106.5 -173t-37.5 -218.5zM299 1346l377 -195l92 152l-356 225zM338 518q0 78 19.5 134.5t52 93t74.5 54 t85 17.5q117 0 170.5 -78t53.5 -225q0 -156 -64.5 -233.5t-163.5 -77.5q-227 0 -227 315z" />
<glyph unicode="&#xf3;" d="M68 492q0 -135 33.5 -232.5t95 -160t149.5 -91t197 -28.5q115 0 210 40.5t164.5 113.5t107.5 173t38 221q0 262 -129 386t-346 124q-117 0 -212 -41t-164 -113.5t-106.5 -173t-37.5 -218.5zM338 518q0 78 19.5 134.5t52 93t74.5 54t85 17.5q117 0 170.5 -78t53.5 -225 q0 -156 -64.5 -233.5t-163.5 -77.5q-227 0 -227 315zM403 1303l90 -150l377 195l-108 180z" />
<glyph unicode="&#xf4;" d="M68 492q0 -135 33.5 -232.5t95 -160t149.5 -91t197 -28.5q115 0 210 40.5t164.5 113.5t107.5 173t38 221q0 262 -129 386t-346 124q-117 0 -212 -41t-164 -113.5t-106.5 -173t-37.5 -218.5zM266 1317l78 -152l227 129l232 -129l84 154l-314 178zM338 518q0 78 19.5 134.5 t52 93t74.5 54t85 17.5q117 0 170.5 -78t53.5 -225q0 -156 -64.5 -233.5t-163.5 -77.5q-227 0 -227 315z" />
<glyph unicode="&#xf5;" d="M68 492q0 -135 33.5 -232.5t95 -160t149.5 -91t197 -28.5q115 0 210 40.5t164.5 113.5t107.5 173t38 221q0 262 -129 386t-346 124q-117 0 -212 -41t-164 -113.5t-106.5 -173t-37.5 -218.5zM221 1386l51 -174q29 29 65 48.5t75 19.5q47 0 79.5 -15.5t65.5 -35t72 -34.5 t98 -15t117.5 27.5t93.5 58.5l-51 174q-27 -27 -65 -46.5t-81 -19.5q-45 0 -77.5 15.5t-66.5 35t-72 35t-93 15.5q-59 0 -113.5 -25t-97.5 -64zM338 518q0 78 19.5 134.5t52 93t74.5 54t85 17.5q117 0 170.5 -78t53.5 -225q0 -156 -64.5 -233.5t-163.5 -77.5 q-227 0 -227 315z" />
<glyph unicode="&#xf6;" d="M68 492q0 -135 33.5 -232.5t95 -160t149.5 -91t197 -28.5q115 0 210 40.5t164.5 113.5t107.5 173t38 221q0 262 -129 386t-346 124q-117 0 -212 -41t-164 -113.5t-106.5 -173t-37.5 -218.5zM228 1327q0 -59 40.5 -100t100.5 -41q59 0 100 41t41 100t-41 100t-100 41 t-100 -41t-41 -100zM338 518q0 78 19.5 134.5t52 93t74.5 54t85 17.5q117 0 170.5 -78t53.5 -225q0 -156 -64.5 -233.5t-163.5 -77.5q-227 0 -227 315zM641 1327q0 -59 41 -100t101 -41q59 0 100 41t41 100t-41 100t-100 41t-100.5 -41t-41.5 -100z" />
<glyph unicode="&#xf7;" horiz-adv-x="1239" d="M98 418h1043v221h-1043v-221zM459 117q0 -66 47 -113t112 -47q66 0 113 47t47 113t-47 112.5t-113 46.5t-112.5 -47t-46.5 -112zM459 938q0 -66 47 -113t112 -47q66 0 113 47t47 113t-47 114t-113 48t-112.5 -48t-46.5 -114z" />
<glyph unicode="&#xf8;" d="M63 498q0 -168 55.5 -286t160.5 -177l-80 -207l151 -47l80 207q25 -4 52.5 -7.5t56.5 -3.5q113 0 207 41t161.5 114t105.5 173t38 221q0 195 -64.5 305.5t-167.5 159.5l72 187l-152 47l-71 -191q-23 4 -46.5 5t-46.5 1q-115 0 -209 -38.5t-161.5 -110.5t-104.5 -171 t-37 -222zM307 512q0 80 18.5 136.5t49.5 95t69.5 58t79.5 25.5q16 2 31 1t31 -3l-209 -544q-35 37 -52.5 98t-17.5 133zM512 199l215 559q41 -37 60.5 -99.5t19.5 -140.5q0 -80 -17.5 -140.5t-47 -100t-69.5 -60t-83 -24.5q-20 -4 -41 -1t-37 7z" />
<glyph unicode="&#xf9;" horiz-adv-x="1292" d="M37 838q41 -4 86 -9.5t82 -11.5v-514q0 -68 15.5 -126t50 -103t93 -71t144.5 -26q125 0 212 56.5t134 148.5l4 -2q-8 -41 -10 -92t-2 -90q100 -4 209.5 1t199.5 15v166q-41 4 -85 9.5t-80 11.5v819q-106 4 -213 0t-199 -14v-168q39 -4 79 -9.5t70 -9.5v-293 q0 -68 -18 -127t-50 -104t-76 -71.5t-93 -26.5q-72 0 -98.5 45t-26.5 125v653q-115 4 -226.5 -1t-201.5 -15v-166zM330 1346l377 -195l92 152l-356 225z" />
<glyph unicode="&#xfa;" horiz-adv-x="1292" d="M37 838q41 -4 86 -9.5t82 -11.5v-514q0 -68 15.5 -126t50 -103t93 -71t144.5 -26q125 0 212 56.5t134 148.5l4 -2q-8 -41 -10 -92t-2 -90q100 -4 209.5 1t199.5 15v166q-41 4 -85 9.5t-80 11.5v819q-106 4 -213 0t-199 -14v-168q39 -4 79 -9.5t70 -9.5v-293 q0 -68 -18 -127t-50 -104t-76 -71.5t-93 -26.5q-72 0 -98.5 45t-26.5 125v653q-115 4 -226.5 -1t-201.5 -15v-166zM481 1303l90 -150l377 195l-108 180z" />
<glyph unicode="&#xfb;" horiz-adv-x="1292" d="M37 838q41 -4 86 -9.5t82 -11.5v-514q0 -68 15.5 -126t50 -103t93 -71t144.5 -26q125 0 212 56.5t134 148.5l4 -2q-8 -41 -10 -92t-2 -90q100 -4 209.5 1t199.5 15v166q-41 4 -85 9.5t-80 11.5v819q-106 4 -213 0t-199 -14v-168q39 -4 79 -9.5t70 -9.5v-293 q0 -68 -18 -127t-50 -104t-76 -71.5t-93 -26.5q-72 0 -98.5 45t-26.5 125v653q-115 4 -226.5 -1t-201.5 -15v-166zM317 1317l78 -152l227 129l232 -129l84 154l-314 178z" />
<glyph unicode="&#xfc;" horiz-adv-x="1292" d="M37 838q41 -4 86 -9.5t82 -11.5v-514q0 -68 15.5 -126t50 -103t93 -71t144.5 -26q125 0 212 56.5t134 148.5l4 -2q-8 -41 -10 -92t-2 -90q100 -4 209.5 1t199.5 15v166q-41 4 -85 9.5t-80 11.5v819q-106 4 -213 0t-199 -14v-168q39 -4 79 -9.5t70 -9.5v-293 q0 -68 -18 -127t-50 -104t-76 -71.5t-93 -26.5q-72 0 -98.5 45t-26.5 125v653q-115 4 -226.5 -1t-201.5 -15v-166zM281 1327q0 -59 40.5 -100t100.5 -41q59 0 100 41t41 100t-41 100t-100 41t-100 -41t-41 -100zM694 1327q0 -59 41 -100t101 -41q59 0 100 41t41 100t-41 100 t-100 41t-100.5 -41t-41.5 -100z" />
<glyph unicode="&#xff;" horiz-adv-x="1159" d="M16 850q25 -8 53.5 -12t57.5 -9l283 -829h75l-34 -98q-20 -57 -42 -94t-47.5 -59.5t-54 -32t-61.5 -9.5q-35 0 -70 5t-76 18l-14 -226q37 -8 81 -12t77 -4q88 0 156.5 19.5t124 66.5t99.5 125t85 195l323 935q64 7 111 21v168h-479v-168q51 -12 102 -19l-90 -262 q-29 -78 -50.5 -157.5t-37.5 -143.5h-2q-18 72 -38 138.5t-42 134.5l-103 290q51 6 103 19v168h-490v-168zM213 1327q0 -59 40.5 -100t100.5 -41q59 0 100 41t41 100t-41 100t-100 41t-100 -41t-41 -100zM626 1327q0 -59 41 -100t101 -41q59 0 100 41t41 100t-41 100 t-100 41t-100.5 -41t-41.5 -100z" />
<glyph unicode="&#x152;" horiz-adv-x="1701" d="M70 676q0 -154 36.5 -282t113.5 -219t191.5 -141t272.5 -50q86 0 157.5 8t162.5 8h591v362h-200q-6 -41 -12.5 -76.5t-10.5 -70.5h-282v399h225q6 -57 22 -112h170v416h-170q-8 -27 -13 -55.5t-9 -57.5h-225v369h276q4 -29 9 -65t14 -75h198v348h-594q-66 0 -133 6.5 t-139 6.5q-135 0 -253 -49.5t-207 -142.5t-140 -226t-51 -301zM348 698q0 109 29 194t78 144.5t115.5 91t144.5 31.5q27 0 54.5 -2t53.5 -6v-920q-23 -4 -51.5 -7t-56.5 -3q-96 0 -166 35t-115 97.5t-65.5 150.5t-20.5 194z" />
<glyph unicode="&#x153;" horiz-adv-x="1759" d="M68 500q0 -256 118.5 -388t350.5 -132q123 0 213 47t143 118q55 -80 149.5 -122.5t237.5 -42.5q94 0 188.5 16t176.5 49l-23 203q-68 -31 -145.5 -47.5t-155.5 -16.5q-281 0 -279 283h631q4 33 6 62.5t2 56.5q0 94 -25.5 177t-77.5 144.5t-133 97t-192 35.5t-192.5 -41 t-136.5 -110q-57 78 -148.5 113.5t-197.5 35.5q-113 0 -207.5 -38.5t-162 -109.5t-104 -170t-36.5 -220zM324 512q0 86 20.5 145.5t54 96.5t74.5 53t84 16q123 0 177 -77.5t54 -231.5q0 -160 -66.5 -238.5t-164.5 -78.5q-127 0 -180 85t-53 230zM1044 645q12 92 65.5 147.5 t135.5 55.5q84 0 132 -53.5t44 -149.5h-377z" />
<glyph unicode="&#x178;" horiz-adv-x="1251" d="M16 1214q23 -6 53.5 -11t53.5 -7l366 -725v-281q-47 -4 -92 -10t-86 -14v-166h623v166q-41 8 -86 14t-92 10v281l372 725q27 2 55.5 7t53.5 11v168h-510v-168q29 -8 59.5 -12t63.5 -8l-127 -266q-23 -47 -45.5 -96.5t-42.5 -100.5h-6q-16 47 -38 95l-44 96l-125 272 q31 4 61.5 8t59.5 12v168h-527v-168zM256 1628q0 -59 40.5 -100t100.5 -41q59 0 100 41t41 100t-41 100t-100 41t-100 -41t-41 -100zM669 1628q0 -59 41 -100t101 -41q59 0 100 41t41 100t-41 100t-100 41t-100.5 -41t-41.5 -100z" />
<glyph unicode="&#x2c6;" horiz-adv-x="872" d="M127 1317l78 -152l227 129l232 -129l84 154l-314 178z" />
<glyph unicode="&#x2dc;" horiz-adv-x="956" d="M135 1386l51 -174q29 29 65 48.5t75 19.5q47 0 79.5 -15.5t65.5 -35t72 -34.5t98 -15t117.5 27.5t93.5 58.5l-51 174q-27 -27 -65 -46.5t-81 -19.5q-45 0 -77.5 15.5t-66.5 35t-72 35t-93 15.5q-59 0 -113.5 -25t-97.5 -64z" />
<glyph unicode="&#x2000;" horiz-adv-x="923" />
<glyph unicode="&#x2001;" horiz-adv-x="1847" />
<glyph unicode="&#x2002;" horiz-adv-x="923" />
<glyph unicode="&#x2003;" horiz-adv-x="1847" />
<glyph unicode="&#x2004;" horiz-adv-x="615" />
<glyph unicode="&#x2005;" horiz-adv-x="461" />
<glyph unicode="&#x2006;" horiz-adv-x="307" />
<glyph unicode="&#x2007;" horiz-adv-x="307" />
<glyph unicode="&#x2008;" horiz-adv-x="230" />
<glyph unicode="&#x2009;" horiz-adv-x="369" />
<glyph unicode="&#x200a;" horiz-adv-x="102" />
<glyph unicode="&#x2010;" horiz-adv-x="684" d="M90 416h504v209h-504v-209z" />
<glyph unicode="&#x2011;" horiz-adv-x="684" d="M90 416h504v209h-504v-209z" />
<glyph unicode="&#x2012;" horiz-adv-x="684" d="M90 416h504v209h-504v-209z" />
<glyph unicode="&#x2013;" horiz-adv-x="1024" d="M0 477h1024v230h-1024v-230z" />
<glyph unicode="&#x2014;" horiz-adv-x="2048" d="M0 477h2048v230h-2048v-230z" />
<glyph unicode="&#x2018;" horiz-adv-x="546" d="M99 1093.5q-1 -92.5 47.5 -148.5t119.5 -56q53 0 90 25.5t53.5 64.5t11.5 81t-34 77q-47 57 -33.5 129.5t117.5 185.5l-106 96q-143 -125 -204 -243.5t-62 -211z" />
<glyph unicode="&#x2019;" horiz-adv-x="546" d="M74 967l106 -97q143 125 203.5 244t60.5 211t-47 148.5t-118 56.5q-53 0 -90 -25.5t-53.5 -64.5t-12.5 -82t33 -76q49 -57 35.5 -130t-117.5 -185z" />
<glyph unicode="&#x201a;" horiz-adv-x="546" d="M74 -258l106 -96q143 125 203.5 243.5t60.5 210.5t-47 148.5t-118 56.5q-53 0 -90 -25.5t-53.5 -64.5t-12.5 -82t33 -78q49 -57 35.5 -128.5t-117.5 -184.5z" />
<glyph unicode="&#x201c;" horiz-adv-x="993" d="M99 1093.5q-1 -92.5 47.5 -148.5t119.5 -56q53 0 90 25.5t53.5 64.5t11.5 81t-34 77q-47 57 -33.5 129.5t117.5 185.5l-106 96q-143 -125 -204 -243.5t-62 -211zM547 1094q0 -92 47 -148.5t121 -56.5q53 0 89 25.5t52 64.5t12 81t-32 77q-47 57 -33.5 129.5t117.5 185.5 l-109 96q-143 -125 -203.5 -243.5t-60.5 -210.5z" />
<glyph unicode="&#x201d;" horiz-adv-x="993" d="M74 967l106 -97q143 125 203.5 244t60.5 211t-47 148.5t-118 56.5q-53 0 -90 -25.5t-53.5 -64.5t-12.5 -82t33 -76q49 -57 35.5 -130t-117.5 -185zM520 967l109 -97q143 125 203.5 244t60.5 211t-47 148.5t-121 56.5q-53 0 -89 -25.5t-52.5 -64.5t-12.5 -82t33 -76 q47 -57 34 -130t-118 -185z" />
<glyph unicode="&#x201e;" horiz-adv-x="993" d="M74 -258l106 -96q143 125 203.5 243.5t60.5 210.5t-47 148.5t-118 56.5q-53 0 -90 -25.5t-53.5 -64.5t-12.5 -82t33 -78q49 -57 35.5 -128.5t-117.5 -184.5zM520 -258l109 -96q143 125 203.5 243.5t60.5 210.5t-47 148.5t-121 56.5q-53 0 -89 -25.5t-52.5 -64.5 t-12.5 -82t33 -78q47 -57 34 -128.5t-118 -184.5z" />
<glyph unicode="&#x2022;" horiz-adv-x="878" d="M129 604q0 -63 23.5 -118.5t64.5 -96.5t96.5 -64.5t118.5 -23.5q61 0 116.5 23.5t97.5 64.5t65.5 96.5t23.5 118.5q0 61 -23.5 116.5t-65.5 97.5t-97.5 65.5t-116.5 23.5q-63 0 -118.5 -23.5t-96.5 -65.5t-64.5 -97t-23.5 -117z" />
<glyph unicode="&#x2026;" horiz-adv-x="1527" d="M96 143q0 -70 49.5 -119t118.5 -49q70 0 118 49.5t48 118.5q0 70 -48 119t-118 49t-119 -49t-49 -119zM592 143q0 -70 48 -119t118 -49t119 49.5t49 118.5q0 70 -49 119t-119 49t-118 -49t-48 -119zM1085 143q0 -70 49.5 -119t118.5 -49q68 0 117 49.5t49 118.5 q0 70 -49 119t-117 49q-70 0 -119 -49t-49 -119z" />
<glyph unicode="&#x202f;" horiz-adv-x="369" />
<glyph unicode="&#x2039;" horiz-adv-x="638" d="M84 508l229 -393l209 98l-188 295l186 301l-201 98z" />
<glyph unicode="&#x203a;" horiz-adv-x="638" d="M117 807l188 -295l-186 -301l200 -96l238 397l-231 395z" />
<glyph unicode="&#x205f;" horiz-adv-x="461" />
<glyph unicode="&#x2122;" horiz-adv-x="1759" d="M68 1122h118q4 29 9.5 57.5t7.5 57.5h76v-344q-29 -4 -56.5 -8t-50.5 -13v-110h401v110q-25 8 -52 12.5t-56 8.5v344h76q2 -27 7 -56.5t9 -58.5h121v260h-610v-260zM692 762h320v110q-16 6 -32.5 9.5t-33.5 7.5l35 201l8 57l17 -68l86 -317h184l88 315l18 70l13 -80 l32 -178q-16 -4 -32.5 -8t-32.5 -9v-110h332v117q-23 4 -40.5 6t-35.5 4l-74 362q53 6 98 17v114h-356l-80 -276l-18 -82l-19 88l-73 270h-353v-114q23 -4 47.5 -8.5t51.5 -8.5l-74 -362q-16 -2 -35.5 -5t-40.5 -7v-115z" />
<glyph unicode="&#x25fc;" horiz-adv-x="1013" d="M0 0v1014h1014v-1014h-1014z" />
<glyph unicode="&#xfb01;" horiz-adv-x="1378" d="M29 815h204v-625q-47 -4 -92 -10t-86 -14v-166h586v166q-35 8 -72 14t-73 10v625h417v-625q-37 -4 -73.5 -10t-71.5 -14v-166h573v166q-37 8 -79.5 14t-85.5 10v828h-680v49q0 53 15 96t49 73t89.5 45t136.5 15q63 0 139 -11t142 -30l47 218q-76 18 -163 28t-173 10 q-119 0 -218 -24.5t-172 -78.5t-114 -141t-41 -212v-37h-204v-203z" />
<glyph unicode="&#xfb02;" horiz-adv-x="1378" d="M29 815h204v-625q-47 -4 -92 -10t-86 -14v-166h586v166q-35 8 -72 14t-73 10v625h241v203h-241v65q0 109 59 163t199 54q37 0 77.5 -3t81.5 -9v-1098q-37 -4 -73.5 -10t-71.5 -14v-166h573v166q-37 8 -79.5 14t-85.5 10v1289q-98 16 -196.5 24t-186.5 8 q-301 0 -430.5 -104t-129.5 -315v-74h-204v-203z" />
</font>
</defs>
</svg>
